<svg width="180" height="180" viewBox="0 0 180 180" fill="none" xmlns="http://www.w3.org/2000/svg">
<rect width="180" height="180" fill="white"/>
<path fill-rule="evenodd" clip-rule="evenodd" d="M46 45C46 51.6274 40.6274 57 34 57C27.3726 57 22 51.6274 22 45C22 38.3726 27.3726 33 34 33C40.6274 33 46 38.3726 46 45ZM49 45C49 53.2843 42.2843 60 34 60C25.7157 60 19 53.2843 19 45C19 36.7157 25.7157 30 34 30C42.2843 30 49 36.7157 49 45ZM34 54C38.9706 54 43 49.9706 43 45C43 40.0294 38.9706 36 34 36C29.0294 36 25 40.0294 25 45C25 49.9706 29.0294 54 34 54Z" fill="url(#paint0_linear_6_1128)"/>
<path fill-rule="evenodd" clip-rule="evenodd" d="M46 90C46 96.6274 40.6274 102 34 102C27.3726 102 22 96.6274 22 90C22 83.3726 27.3726 78 34 78C40.6274 78 46 83.3726 46 90ZM49 90C49 98.2843 42.2843 105 34 105C25.7157 105 19 98.2843 19 90C19 81.7157 25.7157 75 34 75C42.2843 75 49 81.7157 49 90ZM34 99C38.9706 99 43 94.9706 43 90C43 85.0294 38.9706 81 34 81C29.0294 81 25 85.0294 25 90C25 94.9706 29.0294 99 34 99Z" fill="url(#paint1_linear_6_1128)"/>
<path fill-rule="evenodd" clip-rule="evenodd" d="M46 135C46 141.627 40.6274 147 34 147C27.3726 147 22 141.627 22 135C22 128.373 27.3726 123 34 123C40.6274 123 46 128.373 46 135ZM49 135C49 143.284 42.2843 150 34 150C25.7157 150 19 143.284 19 135C19 126.716 25.7157 120 34 120C42.2843 120 49 126.716 49 135ZM34 144C38.9706 144 43 139.971 43 135C43 130.029 38.9706 126 34 126C29.0294 126 25 130.029 25 135C25 139.971 29.0294 144 34 144Z" fill="url(#paint2_linear_6_1128)"/>
<path fill-rule="evenodd" clip-rule="evenodd" d="M67.5 43C66.6716 43 66 43.6716 66 44.5C66 45.3284 66.6716 46 67.5 46H157.5C158.328 46 159 45.3284 159 44.5C159 43.6716 158.328 43 157.5 43H67.5ZM66 89.5C66 88.6716 66.6716 88 67.5 88H157.5C158.328 88 159 88.6716 159 89.5C159 90.3284 158.328 91 157.5 91H67.5C66.6716 91 66 90.3284 66 89.5ZM66 134.5C66 133.672 66.6716 133 67.5 133H157.5C158.328 133 159 133.672 159 134.5C159 135.328 158.328 136 157.5 136H67.5C66.6716 136 66 135.328 66 134.5Z" fill="#C6C5C9"/>
<defs>
<linearGradient id="paint0_linear_6_1128" x1="34" y1="30" x2="34" y2="60" gradientUnits="userSpaceOnUse">
<stop stop-color="#077CFF"/>
<stop offset="1" stop-color="#047BFE"/>
</linearGradient>
<linearGradient id="paint1_linear_6_1128" x1="34" y1="75" x2="34" y2="105" gradientUnits="userSpaceOnUse">
<stop stop-color="#FD4235"/>
<stop offset="1" stop-color="#FF3F33"/>
</linearGradient>
<linearGradient id="paint2_linear_6_1128" x1="34" y1="120" x2="34" y2="150" gradientUnits="userSpaceOnUse">
<stop stop-color="#FF9700"/>
<stop offset="1" stop-color="#FE9404"/>
</linearGradient>
</defs>
</svg>
