<svg width="1702" height="192" viewBox="0 0 1702 192" fill="none" xmlns="http://www.w3.org/2000/svg">
<path d="M374.144 13.7153C381.876 13.7153 388.144 19.9834 388.144 27.7153V34.7153H396.144C398.694 34.7153 401.085 35.3964 403.144 36.5874C405.203 35.3964 407.594 34.7153 410.144 34.7153H417.144V27.7153C417.144 19.9834 423.412 13.7153 431.144 13.7153H453.144C460.876 13.7153 467.144 19.9834 467.144 27.7153V34.7153H475.144C479.326 34.7153 483.079 36.5489 485.644 39.4556C488.209 36.5489 491.962 34.7153 496.144 34.7153H503.144V27.7153C503.144 19.9834 509.412 13.7153 517.144 13.7153H560.144C567.876 13.7153 574.144 19.9834 574.144 27.7153V34.7153H582.144C589.876 34.7153 596.144 40.9834 596.144 48.7153V156.715C596.144 164.447 589.876 170.715 582.144 170.715H574.144V177.715C574.144 185.447 567.876 191.715 560.144 191.715H539.144C531.412 191.715 525.144 185.447 525.144 177.715V146.205C522.876 147.787 520.119 148.715 517.144 148.715H496.144C488.412 148.715 482.144 142.447 482.144 134.715V127.715H475.144C472.169 127.715 469.412 126.787 467.144 125.205V134.715C467.144 142.447 460.876 148.715 453.144 148.715H445.144V156.715C445.144 164.447 438.876 170.715 431.144 170.715H410.144C402.412 170.715 396.144 164.447 396.144 156.715V148.715H388.144V156.715C388.144 164.447 381.876 170.715 374.144 170.715H310.144C302.412 170.715 296.144 164.447 296.144 156.715V148.715H288.144C280.412 148.715 274.144 142.447 274.144 134.715V127.715H266.144C258.412 127.715 252.144 121.447 252.144 113.715V48.7153C252.144 40.9834 258.412 34.7153 266.144 34.7153H274.144V27.7153C274.144 19.9834 280.412 13.7153 288.144 13.7153H374.144ZM1303.14 13.7153C1310.88 13.7153 1317.14 19.9834 1317.14 27.7153V34.7153H1324.14C1326.69 34.7153 1329.08 35.3963 1331.14 36.5874C1333.2 35.3963 1335.59 34.7153 1338.14 34.7153H1346.14V27.7153C1346.14 19.9834 1352.41 13.7153 1360.14 13.7153H1424.14C1431.88 13.7153 1438.14 19.9834 1438.14 27.7153V35.4019L1671.32 47.1411C1677.83 47.4689 1683.25 52.2469 1684.4 58.6646C1685.54 65.0823 1682.1 71.4407 1676.11 73.9995C1554.13 126.057 1496.17 128.584 1468.15 128.742C1464.45 128.763 1461.86 128.761 1459.97 128.793C1459.94 129.632 1459.92 130.635 1459.91 131.83C1459.9 134.649 1459.96 137.992 1460.02 142.187C1460.08 146.327 1460.14 151.155 1460.14 156.715C1460.14 164.447 1453.88 170.715 1446.14 170.715H1424.14C1416.41 170.715 1410.14 164.447 1410.14 156.715V148.715H1403.14C1400.17 148.715 1397.41 147.787 1395.14 146.205V177.715C1395.14 185.447 1388.88 191.715 1381.14 191.715H1360.14C1352.41 191.715 1346.14 185.447 1346.14 177.715V170.715H1338.14C1330.41 170.715 1324.14 164.447 1324.14 156.715V148.715H1317.14V156.715C1317.14 164.447 1310.88 170.715 1303.14 170.715H1295.14V177.715C1295.14 185.447 1288.88 191.715 1281.14 191.715H1238.14C1230.41 191.715 1224.14 185.447 1224.14 177.715V170.715H1217.14C1209.41 170.715 1203.14 164.447 1203.14 156.715V62.7153H1195.14C1187.41 62.7153 1181.14 56.4473 1181.14 48.7153V27.7153C1181.14 19.9834 1187.41 13.7153 1195.14 13.7153H1303.14ZM1229.27 41.7153C1230.46 43.7746 1231.14 46.1653 1231.14 48.7153V142.715H1238.14C1245.88 142.715 1252.14 148.983 1252.14 156.715V163.715H1267.14V156.715C1267.14 148.983 1273.41 142.715 1281.14 142.715H1289.14V134.715C1289.14 126.983 1295.41 120.715 1303.14 120.715H1310.14V62.7153H1303.14C1295.41 62.7153 1289.14 56.4473 1289.14 48.7153V41.7153H1229.27ZM866.144 48.7153C866.144 56.4473 859.876 62.7153 852.144 62.7153H844.144V142.715H852.144C854.694 142.715 857.085 143.396 859.144 144.587V113.715C859.144 105.983 865.412 99.7153 873.144 99.7153H895.144C897.694 99.7153 900.085 100.396 902.144 101.587V91.7153C902.144 83.9834 908.412 77.7153 916.144 77.7153H924.144V62.7153H916.144C908.412 62.7153 902.144 56.4473 902.144 48.7153V41.7153H866.144V48.7153ZM1374.14 48.7153C1374.14 56.4473 1367.88 62.7153 1360.14 62.7153H1352.14V142.715H1360.14C1362.69 142.715 1365.08 143.396 1367.14 144.587V113.715C1367.14 105.983 1373.41 99.7153 1381.14 99.7153H1403.14C1410.88 99.7153 1417.14 105.983 1417.14 113.715V120.715H1424.14C1427.17 120.715 1429.97 121.674 1432.25 123.302C1432.58 120.032 1433.24 116.714 1434.56 113.743C1436.1 110.282 1438.54 107.14 1442.08 104.839C1445.36 102.715 1448.76 101.843 1451.42 101.41C1456.11 100.646 1462.4 100.773 1468 100.742C1487.52 100.632 1527.06 99.521 1605.06 71.8403L1423.44 62.6978C1415.99 62.3226 1410.14 56.1736 1410.14 48.7153V41.7153H1374.14V48.7153ZM302.144 48.7153C302.144 56.4473 295.876 62.7153 288.144 62.7153H280.144V99.7153H288.144C295.876 99.7153 302.144 105.983 302.144 113.715V120.715H310.144C317.876 120.715 324.144 126.983 324.144 134.715V142.715H360.144V134.715C360.144 126.983 366.412 120.715 374.144 120.715H382.144V62.7153H374.144C366.412 62.7153 360.144 56.4473 360.144 48.7153V41.7153H302.144V48.7153ZM58.144 60.8423C56.0848 62.0335 53.694 62.7153 51.144 62.7153H43.144V120.715H51.144C58.876 120.715 65.144 126.983 65.144 134.715V142.715H80.144V134.715C80.144 132.165 80.8258 129.775 82.017 127.715H72.144C64.412 127.715 58.144 121.447 58.144 113.715V60.8423ZM442.144 57.3755C439.58 60.6273 435.606 62.7153 431.144 62.7153H424.144V122.587C426.203 121.396 428.594 120.715 431.144 120.715H439.144V91.7153C439.144 83.9834 445.412 77.7153 453.144 77.7153H463.655C462.073 75.4476 461.144 72.6901 461.144 69.7153V62.7153H453.144C448.682 62.7153 444.708 60.6273 442.144 57.3755ZM503.144 81.8423C501.085 83.0335 498.694 83.7153 496.144 83.7153H485.633C487.215 85.9831 488.144 88.7406 488.144 91.7153V99.7153H496.144C498.694 99.7153 501.085 100.396 503.144 101.587V81.8423ZM108.144 113.715C108.144 116.265 107.462 118.656 106.271 120.715H115.144C118.119 120.715 120.876 121.643 123.144 123.225V84.7153H108.144V113.715ZM952.144 91.7153C952.144 96.1776 950.056 100.152 946.804 102.715C950.056 105.279 952.144 109.253 952.144 113.715V156.715C952.144 164.447 945.876 170.715 938.144 170.715H916.144C908.412 170.715 902.144 164.447 902.144 156.715V148.715H895.144C892.169 148.715 889.412 147.787 887.144 146.205V177.715C887.144 185.447 880.876 191.715 873.144 191.715H852.144C844.412 191.715 838.144 185.447 838.144 177.715V170.715H830.144C822.412 170.715 816.144 164.447 816.144 156.715V48.7153C816.144 40.9834 822.412 34.7153 830.144 34.7153H838.144V27.7153C838.144 19.9834 844.412 13.7153 852.144 13.7153H916.144C923.876 13.7153 930.144 19.9834 930.144 27.7153V34.7153H938.144C945.876 34.7153 952.144 40.9834 952.144 48.7153V91.7153ZM108.144 48.7153C108.144 51.6901 107.215 54.4476 105.633 56.7153H137.144C144.876 56.7153 151.144 62.9834 151.144 70.7153V177.715C151.144 185.447 144.876 191.715 137.144 191.715H115.144C107.412 191.715 101.144 185.447 101.144 177.715V168.842C99.0848 170.033 96.694 170.715 94.144 170.715H51.144C43.412 170.715 37.144 164.447 37.144 156.715V148.715H29.144C21.412 148.715 15.144 142.447 15.144 134.715V48.7153C15.144 40.9834 21.412 34.7153 29.144 34.7153H37.144V27.7153C37.144 19.9834 43.412 13.7153 51.144 13.7153H94.144C101.876 13.7153 108.144 19.9834 108.144 27.7153V48.7153ZM531.144 48.7153C531.144 51.2654 530.462 53.6561 529.271 55.7153H539.144C546.876 55.7154 553.144 61.9834 553.144 69.7153V144.587C555.203 143.396 557.594 142.715 560.144 142.715H568.144V62.7153H560.144C552.412 62.7153 546.144 56.4473 546.144 48.7153V41.7153H531.144V48.7153Z" fill="black" fill-opacity="0.5"/>
<path d="M994.144 13.7153C1001.88 13.7153 1008.14 19.9834 1008.14 27.7153V56.7153H1016.14C1018.69 56.7153 1021.08 57.3964 1023.14 58.5874V48.7153C1023.14 40.9834 1029.41 34.7154 1037.14 34.7153H1059.14C1066.88 34.7153 1073.14 40.9834 1073.14 48.7153V156.715C1073.14 164.447 1066.88 170.715 1059.14 170.715H1051.14V177.715C1051.14 185.447 1044.88 191.715 1037.14 191.715H994.144C986.412 191.715 980.144 185.447 980.144 177.715V170.715H973.144C965.412 170.715 959.144 164.447 959.144 156.715V135.715C959.144 130.952 961.524 126.744 965.159 124.215C961.524 121.687 959.144 117.479 959.144 112.715V96.8247L957.053 94.3423C956.229 93.3635 955.543 92.276 955.014 91.1108L938.396 54.5024C936.429 50.1693 936.798 45.1336 939.375 41.1333C941.953 37.133 946.385 34.7153 951.144 34.7153H959.144V27.7153C959.144 19.9834 965.412 13.7153 973.144 13.7153H994.144ZM1045.14 103.205C1042.88 104.787 1040.12 105.715 1037.14 105.715H1028.27C1029.46 107.775 1030.14 110.165 1030.14 112.715V135.715C1030.14 143.447 1023.88 149.715 1016.14 149.715H1006.27C1007.46 151.775 1008.14 154.165 1008.14 156.715V163.715H1023.14V156.715C1023.14 148.983 1029.41 142.715 1037.14 142.715H1045.14V103.205ZM178.144 60.2046C175.876 61.7866 173.119 62.7153 170.144 62.7153H163.144V121.715H170.144C173.119 121.715 175.876 122.643 178.144 124.225V91.7153C178.144 87.5337 179.978 83.7807 182.884 81.2153C179.978 78.65 178.144 74.8969 178.144 70.7153V60.2046ZM1503.31 99.7153H1524.14C1531.88 99.7153 1538.14 105.983 1538.14 113.715V124.225C1540.41 122.643 1543.17 121.715 1546.14 121.715H1554.14V84.7153H1503.14C1499.1 84.7153 1495.45 82.9963 1492.89 80.2495L1503.31 99.7153ZM625.144 60.8423C623.085 62.0335 620.694 62.7153 618.144 62.7153H610.144V121.715H618.144C620.694 121.715 623.085 122.396 625.144 123.587V91.7153C625.144 87.5337 626.978 83.7807 629.884 81.2153C626.978 78.65 625.144 74.8969 625.144 70.7153V60.8423ZM1602.93 117.413L1609.14 123.065V113.715C1609.14 109.253 1611.23 105.279 1614.48 102.715C1611.23 100.152 1609.14 96.1773 1609.14 91.7153V62.7153H1601.14C1599.91 62.7153 1598.71 62.555 1597.57 62.2544L1602.93 117.413ZM747.627 41.7153C749.39 44.7683 749.947 48.3996 749.144 51.8687V120.715H757.144C759.694 120.715 762.085 121.396 764.144 122.587V48.7153C764.144 46.1653 764.826 43.7746 766.017 41.7153H747.627ZM980.144 60.8423C978.085 62.0335 975.694 62.7153 973.144 62.7153H972.874L979.712 77.7798L983.853 82.6978C985.978 85.2218 987.144 88.4156 987.144 91.7153V98.7153H1004.02C1002.83 96.6561 1002.14 94.2654 1002.14 91.7153V84.7153H994.144C986.412 84.7153 980.144 78.4473 980.144 70.7153V60.8423ZM1489.14 60.8423C1487.45 61.8233 1485.53 62.4571 1483.48 62.6509L1489.52 73.938C1489.27 72.9033 1489.14 71.8244 1489.14 70.7153V60.8423ZM249.144 91.7153C249.144 96.1776 247.056 100.152 243.804 102.715C247.056 105.279 249.144 109.253 249.144 113.715V156.715C249.144 164.447 242.876 170.715 235.144 170.715H170.144C162.412 170.715 156.144 164.447 156.144 156.715V149.715H149.144C141.412 149.715 135.144 143.447 135.144 135.715V48.7153C135.144 40.9834 141.412 34.7153 149.144 34.7153H156.144V27.7153C156.144 19.9834 162.412 13.7153 170.144 13.7153H257.144C264.876 13.7153 271.144 19.9834 271.144 27.7153V48.7153C271.144 56.4473 264.876 62.7153 257.144 62.7153H246.633C248.215 64.9831 249.144 67.7406 249.144 70.7153V91.7153ZM696.144 91.7153C696.144 96.1776 694.056 100.152 690.804 102.715C694.056 105.279 696.144 109.253 696.144 113.715V156.715C696.144 164.447 689.876 170.715 682.144 170.715H618.144C610.412 170.715 604.144 164.447 604.144 156.715V149.715H596.144C588.412 149.715 582.144 143.447 582.144 135.715V48.7153C582.144 40.9834 588.412 34.7153 596.144 34.7153H604.144V27.7153C604.144 19.9834 610.412 13.7153 618.144 13.7153H704.144C705.908 13.7153 707.595 14.0428 709.15 14.6382C710.716 14.0398 712.403 13.7153 714.144 13.7153H822.144C829.876 13.7153 836.144 19.9834 836.144 27.7153V48.7153C836.144 56.4473 829.876 62.7153 822.144 62.7153H792.144V156.715C792.144 164.447 785.876 170.715 778.144 170.715H757.144C749.412 170.715 743.144 164.447 743.144 156.715V148.715H735.144C727.412 148.715 721.144 142.447 721.144 134.715V54.229L717.943 51.0825C716.818 57.687 711.069 62.7153 704.144 62.7153H693.633C695.215 64.9831 696.144 67.7406 696.144 70.7153V91.7153ZM1658.14 91.7153C1658.14 96.1776 1656.06 100.152 1652.8 102.715C1656.06 105.279 1658.14 109.253 1658.14 113.715V120.715H1666.14C1668.69 120.715 1671.08 121.396 1673.14 122.587V62.7153H1666.14C1663.17 62.7153 1660.41 61.7866 1658.14 60.2046V91.7153ZM1560.14 48.7153C1560.14 51.6901 1559.22 54.4476 1557.63 56.7153H1568.14C1568.4 56.7153 1568.65 56.7225 1568.9 56.7358L1566.21 29.0708C1565.83 25.1406 1567.12 21.2314 1569.78 18.3071C1572.43 15.383 1576.2 13.7153 1580.14 13.7153H1601.14C1608.88 13.7153 1615.14 19.9834 1615.14 27.7153V34.7153H1623.14C1625.69 34.7153 1628.08 35.3963 1630.14 36.5874V27.7153C1630.14 19.9834 1636.41 13.7153 1644.14 13.7153H1666.14C1673.88 13.7153 1680.14 19.9834 1680.14 27.7153V34.7153H1687.14C1694.88 34.7153 1701.14 40.9834 1701.14 48.7153V156.715C1701.14 164.447 1694.88 170.715 1687.14 170.715H1666.14C1658.41 170.715 1652.14 164.447 1652.14 156.715V148.715H1644.14C1641.59 148.715 1639.2 148.033 1637.14 146.842V156.715C1637.14 164.447 1630.88 170.715 1623.14 170.715H1601.14C1593.41 170.715 1587.14 164.447 1587.14 156.715V140.903L1582.13 136.337C1581.8 143.781 1575.67 149.715 1568.14 149.715H1560.14V156.715C1560.14 164.447 1553.88 170.715 1546.14 170.715H1503.14C1495.41 170.715 1489.14 164.447 1489.14 156.715V135.715C1489.14 132.594 1490.17 129.711 1491.89 127.382C1487.96 126.51 1484.53 123.963 1482.58 120.32L1447.8 55.3198C1445.48 50.9809 1445.61 45.7414 1448.13 41.52C1450.66 37.2987 1455.22 34.7153 1460.14 34.7153H1468.14V27.7153C1468.14 19.9834 1474.41 13.7153 1482.14 13.7153H1546.14C1553.88 13.7153 1560.14 19.9834 1560.14 27.7153V48.7153Z" fill="black" fill-opacity="0.5"/>
<path d="M416 14.1073H438V35.1073H460V56.1073H481V35.1073H502V14.1073H545V35.1073H567V143.107H545V164.107H524V56.1073H502V121.107H481V100.107H460V99.1073H459V78.1073H438V121.107H416V143.107H395V35.1073H416V14.1073Z" fill="#C1F752"/>
<path d="M438 0.107337C445.732 0.107337 452 6.37535 452 14.1073V21.1073H460C464.182 21.1073 467.935 22.9409 470.5 25.8476C473.065 22.9409 476.818 21.1073 481 21.1073H488V14.1073C488 6.37535 494.268 0.107337 502 0.107337H545C552.732 0.107337 559 6.37535 559 14.1073V21.1073H567C574.732 21.1073 581 27.3754 581 35.1073V143.107C581 150.839 574.732 157.107 567 157.107H559V164.107C559 171.839 552.732 178.107 545 178.107H524C516.268 178.107 510 171.839 510 164.107V132.597C507.732 134.179 504.975 135.107 502 135.107H481C473.268 135.107 467 128.839 467 121.107V114.107H460C457.025 114.107 454.268 113.179 452 111.597V121.107C452 128.839 445.732 135.107 438 135.107H430V143.107C430 150.839 423.732 157.107 416 157.107H395C387.268 157.107 381 150.839 381 143.107V35.1073C381 27.3754 387.268 21.1073 395 21.1073H402V14.1073C402 6.37535 408.268 0.107337 416 0.107337H438ZM427 43.7675C424.436 47.0193 420.462 49.1073 416 49.1073H409V108.979C411.059 107.788 413.45 107.107 416 107.107H424V78.1073C424 70.3754 430.268 64.1073 438 64.1073H448.511C446.929 61.8396 446 59.0821 446 56.1073V49.1073H438C433.538 49.1073 429.564 47.0193 427 43.7675ZM488 68.2343C485.941 69.4255 483.55 70.1073 481 70.1073H470.489C472.071 72.3751 473 75.1326 473 78.1073V86.1073H481C483.55 86.1073 485.941 86.7884 488 87.9794V68.2343ZM516 35.1073C516 37.6574 515.318 40.0481 514.127 42.1073H524C531.732 42.1073 538 48.3754 538 56.1073V130.979C540.059 129.788 542.45 129.107 545 129.107H553V49.1073H545C537.268 49.1073 531 42.8393 531 35.1073V28.1073H516V35.1073Z" fill="white"/>
<path d="M1180 14.1073H1288V35.1073H1309V121.107H1288V143.107H1266V164.107H1223V143.107H1202V35.1073H1180V14.1073Z" fill="#78E42E"/>
<path d="M1288 0.107337C1295.73 0.107337 1302 6.37535 1302 14.1073V21.1073H1309C1316.73 21.1073 1323 27.3754 1323 35.1073V121.107C1323 128.839 1316.73 135.107 1309 135.107H1302V143.107C1302 150.839 1295.73 157.107 1288 157.107H1280V164.107C1280 171.839 1273.73 178.107 1266 178.107H1223C1215.27 178.107 1209 171.839 1209 164.107V157.107H1202C1194.27 157.107 1188 150.839 1188 143.107V49.1073H1180C1172.27 49.1073 1166 42.8393 1166 35.1073V14.1073C1166 6.37535 1172.27 0.107337 1180 0.107337H1288ZM1214.13 28.1073C1215.32 30.1666 1216 32.5573 1216 35.1073V129.107H1223C1230.73 129.107 1237 135.375 1237 143.107V150.107H1252V143.107C1252 135.375 1258.27 129.107 1266 129.107H1274V121.107C1274 113.375 1280.27 107.107 1288 107.107H1295V49.1073H1288C1280.27 49.1073 1274 42.8393 1274 35.1073V28.1073H1214.13Z" fill="white"/>
<path d="M273.194 14.0013L278.831 32.7103L277.555 114.301L345.053 114.3C345.299 114.546 381.225 121.056 381.194 121.001H359.194V143.001H295.194V121.001H273.194V100.001H251.194V35.0013H273.194V14.0013Z" fill="#8EF739"/>
<path d="M271.153 0.150751C278.022 -0.861489 284.595 3.31419 286.598 9.96227L292.236 28.6713C292.652 30.0514 292.852 31.4878 292.83 32.9291L291.775 100.3H345.052C346.292 100.3 347.516 100.465 348.693 100.782C348.855 100.816 349.095 100.867 349.427 100.934C350.359 101.12 351.723 101.384 353.412 101.703C356.774 102.34 361.256 103.169 365.752 103.994C370.242 104.817 374.723 105.63 378.076 106.234C379.754 106.536 381.139 106.784 382.097 106.953C382.581 107.039 382.934 107.1 383.156 107.138C383.247 107.154 383.291 107.161 383.301 107.162C383.294 107.161 383.273 107.158 383.243 107.154C383.238 107.153 383.232 107.152 383.224 107.151C387.472 107.773 391.246 110.322 393.39 114.127C395.097 122.649 388.42 132.992 384.835 134.52C383.67 134.781 381.951 134.982 381.413 135C381.338 135.002 381.265 134.998 381.194 134.998V135.001H373.194V143.001C373.194 150.733 366.926 157.001 359.194 157.001H295.194C287.462 157.001 281.194 150.733 281.194 143.001V135.001H273.194C265.462 135.001 259.194 128.733 259.194 121.001V114.001H251.194C243.462 114.001 237.194 107.733 237.194 100.001V35.0013C237.194 27.2694 243.462 21.0013 251.194 21.0013H259.194V14.0013C259.194 7.05776 264.284 1.16314 271.153 0.150751ZM309.194 128.3V129.001H345.194V128.636C344.729 128.545 344.304 128.464 343.928 128.389C343.784 128.36 343.642 128.329 343.502 128.3H309.194ZM382.483 107.062C382.465 107.06 382.446 107.058 382.427 107.056C382.413 107.055 382.375 107.052 382.317 107.047C382.372 107.052 382.428 107.057 382.483 107.062ZM382.021 107.027C381.968 107.024 381.911 107.021 381.849 107.018C381.907 107.021 381.964 107.023 382.021 107.027ZM381.58 107.007C381.524 107.006 381.466 107.005 381.406 107.004C381.464 107.005 381.522 107.006 381.58 107.007ZM352.787 102.631C352.721 102.587 352.656 102.546 352.595 102.507C352.659 102.548 352.723 102.589 352.787 102.631ZM352.473 102.429C352.425 102.399 352.378 102.37 352.334 102.343C352.38 102.372 352.427 102.4 352.473 102.429ZM351.935 102.109C351.932 102.107 351.928 102.105 351.924 102.103C351.909 102.094 351.893 102.086 351.878 102.078C351.897 102.088 351.916 102.098 351.935 102.109Z" fill="white"/>
<path d="M273 14.1073H359V35.1073H381C381.246 35.3533 381.031 121.162 381 121.107H359V143.107H295L355.804 121.957L354.426 21.3973L284.055 16.9803L251 100.107V35.1073H273V14.1073Z" fill="#8EF739"/>
<path d="M359 0.107337C366.732 0.107337 373 6.37535 373 14.1073V21.1073H381C384.713 21.1073 388.274 22.5824 390.899 25.2079C392.057 26.5194 393.501 28.8041 393.903 29.6737C394.119 30.2182 394.428 31.1423 394.533 31.5175C394.724 32.234 394.814 32.8094 394.847 33.0263C394.923 33.526 394.955 33.928 394.966 34.0575C394.992 34.3884 395.005 34.6779 395.011 34.8144C395.024 35.1388 395.032 35.5084 395.038 35.8544C395.052 36.5769 395.062 37.5744 395.071 38.7714C395.089 41.1823 395.101 44.5865 395.108 48.6318C395.122 56.7313 395.117 67.4962 395.104 78.2382C395.09 88.9829 395.069 99.7175 395.048 107.764C395.038 111.786 395.027 115.14 395.019 117.488C395.014 118.661 395.011 119.589 395.008 120.226C395.006 120.541 395.004 120.798 395.003 120.98C395.002 121.067 395.001 121.162 395 121.246C395 121.278 394.999 121.364 394.996 121.464C394.995 121.49 394.991 121.647 394.98 121.844C394.973 121.977 394.941 122.396 394.911 122.684C394.795 123.437 389.072 128.968 381 130.082V135.107H373V143.107C373 150.839 366.732 157.107 359 157.107H295C288.168 157.107 282.333 152.176 281.195 145.439C280.057 138.703 283.948 132.129 290.4 129.885L341.667 112.051L340.604 34.5575L293.312 31.5888L264.009 105.28C261.527 111.521 254.963 115.121 248.366 113.857C241.77 112.594 237 106.824 237 100.107V35.1073C237 27.3754 243.268 21.1073 251 21.1073H259V14.1073C259 6.37535 265.268 0.107337 273 0.107337H359Z" fill="white"/>
<path d="M1345 14.1073H1409V35.1073H1431V143.107H1409V121.107H1388V100.107H1366V164.107H1345V143.107H1323V35.1073H1345V14.1073Z" fill="#ADEF42"/>
<path d="M1409 0.107337C1416.73 0.107337 1423 6.37535 1423 14.1073V21.1073H1431C1438.73 21.1073 1445 27.3754 1445 35.1073V143.107C1445 150.839 1438.73 157.107 1431 157.107H1409C1401.27 157.107 1395 150.839 1395 143.107V135.107H1388C1385.03 135.107 1382.27 134.179 1380 132.597V164.107C1380 171.839 1373.73 178.107 1366 178.107H1345C1337.27 178.107 1331 171.839 1331 164.107V157.107H1323C1315.27 157.107 1309 150.839 1309 143.107V35.1073C1309 27.3754 1315.27 21.1073 1323 21.1073H1331V14.1073C1331 6.37535 1337.27 0.107337 1345 0.107337H1409ZM1359 35.1073C1359 42.8393 1352.73 49.1073 1345 49.1073H1337V129.107H1345C1347.55 129.107 1349.94 129.788 1352 130.979V100.107C1352 92.3754 1358.27 86.1073 1366 86.1073H1388C1395.73 86.1073 1402 92.3754 1402 100.107V107.107H1409C1411.97 107.107 1414.73 108.035 1417 109.617V49.1073H1409C1401.27 49.1073 1395 42.8393 1395 35.1073V28.1073H1359V35.1073Z" fill="white"/>
<path d="M837 14.1073H901V35.1073H923V78.1073H901V100.107H923V143.107H901V121.107H880V100.107H858V164.107H837V143.107H815V35.1073H837V14.1073Z" fill="#BDF44C"/>
<path d="M851 35.1073C851 42.8393 844.732 49.1073 837 49.1073H829V129.107H837C839.55 129.107 841.941 129.788 844 130.979V100.107C844 92.3754 850.268 86.1073 858 86.1073H880C882.55 86.1073 884.941 86.7884 887 87.9794V78.1073C887 70.3754 893.268 64.1073 901 64.1073H909V49.1073H901C893.268 49.1073 887 42.8393 887 35.1073V28.1073H851V35.1073ZM937 78.1073C937 82.5696 934.912 86.5437 931.66 89.1073C934.912 91.671 937 95.6451 937 100.107V143.107C937 150.839 930.732 157.107 923 157.107H901C893.268 157.107 887 150.839 887 143.107V135.107H880C877.025 135.107 874.268 134.179 872 132.597V164.107C872 171.839 865.732 178.107 858 178.107H837C829.268 178.107 823 171.839 823 164.107V157.107H815C807.268 157.107 801 150.839 801 143.107V35.1073C801 27.3754 807.268 21.1073 815 21.1073H823V14.1073C823 6.37535 829.268 0.107337 837 0.107337H901C908.732 0.107337 915 6.37535 915 14.1073V21.1073H923C930.732 21.1073 937 27.3754 937 35.1073V78.1073Z" fill="white"/>
<path d="M36 14.1073H79V35.1073H57V100.107H79V57.1073H122V164.107H100V121.107H79V143.107H36V121.107H14V35.1073H36V14.1073Z" fill="#94FC3C"/>
<path d="M43 47.2343C40.9408 48.4255 38.55 49.1073 36 49.1073H28V107.107H36C43.732 107.107 50 113.375 50 121.107V129.107H65V121.107C65 118.557 65.6818 116.167 66.873 114.107H57C49.268 114.107 43 107.839 43 100.107V47.2343ZM93 100.107C93 102.657 92.3182 105.048 91.127 107.107H100C102.975 107.107 105.732 108.035 108 109.617V71.1073H93V100.107ZM93 35.1073C93 38.0821 92.0713 40.8396 90.4893 43.1073H122C129.732 43.1073 136 49.3754 136 57.1073V164.107C136 171.839 129.732 178.107 122 178.107H100C92.268 178.107 86 171.839 86 164.107V155.234C83.9408 156.425 81.55 157.107 79 157.107H36C28.268 157.107 22 150.839 22 143.107V135.107H14C6.26801 135.107 0 128.839 0 121.107V35.1073C0 27.3754 6.26801 21.1073 14 21.1073H22V14.1073C22 6.37535 28.268 0.107337 36 0.107337H79C86.732 0.107337 93 6.37535 93 14.1073V35.1073Z" fill="white"/>
<path d="M1565 14.1073H1586V35.1073H1608V78.1073H1629V14.1073H1651V35.1073H1672V143.107H1651V121.107H1629V100.107H1608V143.107H1586V121.107H1565V14.1073Z" fill="#A4EB3E"/>
<path d="M1586 0.107337C1593.73 0.107337 1600 6.37535 1600 14.1073V21.1073H1608C1610.55 21.1073 1612.94 21.7884 1615 22.9794V14.1073C1615 6.37535 1621.27 0.107337 1629 0.107337H1651C1658.73 0.107337 1665 6.37535 1665 14.1073V21.1073H1672C1679.73 21.1073 1686 27.3754 1686 35.1073V143.107C1686 150.839 1679.73 157.107 1672 157.107H1651C1643.27 157.107 1637 150.839 1637 143.107V135.107H1629C1626.45 135.107 1624.06 134.425 1622 133.234V143.107C1622 150.839 1615.73 157.107 1608 157.107H1586C1578.27 157.107 1572 150.839 1572 143.107V135.107H1565C1557.27 135.107 1551 128.839 1551 121.107V14.1073C1551 6.37535 1557.27 0.107337 1565 0.107337H1586ZM1579 107.107H1586C1588.97 107.107 1591.73 108.035 1594 109.617V100.107C1594 95.6454 1596.09 91.671 1599.34 89.1073C1596.09 86.5437 1594 82.5693 1594 78.1073V49.1073H1586C1583.45 49.1073 1581.06 48.4255 1579 47.2343V107.107ZM1643 78.1073C1643 82.5696 1640.91 86.5437 1637.66 89.1073C1640.91 91.671 1643 95.6451 1643 100.107V107.107H1651C1653.55 107.107 1655.94 107.788 1658 108.979V49.1073H1651C1648.03 49.1073 1645.27 48.1786 1643 46.5966V78.1073Z" fill="white"/>
<path d="M958 14.1073H979V57.1073H1001V78.1073H1022V35.1073H1044V143.107H1022V164.107H979V143.107H958V122.107H1001V99.1073H958V78.1073H936V35.1073H958V14.1073Z" fill="#7DE931"/>
<path d="M979 0.107337C986.732 0.107337 993 6.37535 993 14.1073V43.1073H1001C1003.55 43.1073 1005.94 43.7884 1008 44.9794V35.1073C1008 27.3754 1014.27 21.1073 1022 21.1073H1044C1051.73 21.1073 1058 27.3754 1058 35.1073V143.107C1058 150.839 1051.73 157.107 1044 157.107H1036V164.107C1036 171.839 1029.73 178.107 1022 178.107H979C971.268 178.107 965 171.839 965 164.107V157.107H958C950.268 157.107 944 150.839 944 143.107V122.107C944 117.344 946.38 113.136 950.015 110.607C946.38 108.079 944 103.871 944 99.1073V92.1073H936C928.268 92.1073 922 85.8393 922 78.1073V35.1073C922 27.3754 928.268 21.1073 936 21.1073H944V14.1073C944 6.37535 950.268 0.107337 958 0.107337H979ZM1030 89.5966C1027.73 91.1786 1024.97 92.1073 1022 92.1073H1013.13C1014.32 94.1666 1015 96.5573 1015 99.1073V122.107C1015 129.839 1008.73 136.107 1001 136.107H991.127C992.318 138.167 993 140.557 993 143.107V150.107H1008V143.107C1008 135.375 1014.27 129.107 1022 129.107H1030V89.5966ZM965 47.2343C962.941 48.4255 960.55 49.1073 958 49.1073H950V64.1073H958C965.732 64.1073 972 70.3754 972 78.1073V85.1073H988.873C987.682 83.0481 987 80.6574 987 78.1073V71.1073H979C971.268 71.1073 965 64.8393 965 57.1073V47.2343Z" fill="white"/>
<path d="M1467 14.1073H1531V35.1073H1488V57.1073H1553V122.107H1531V143.107H1488V122.107H1509V100.107H1445V35.1073H1467V14.1073Z" fill="#A9EE40"/>
<path d="M1474 47.2343C1471.94 48.4255 1469.55 49.1073 1467 49.1073H1459V86.1073H1509C1516.73 86.1073 1523 92.3754 1523 100.107V110.617C1525.27 109.035 1528.03 108.107 1531 108.107H1539V71.1073H1488C1480.27 71.1073 1474 64.8393 1474 57.1073V47.2343ZM1545 35.1073C1545 38.0821 1544.07 40.8396 1542.49 43.1073H1553C1560.73 43.1073 1567 49.3754 1567 57.1073V122.107C1567 129.839 1560.73 136.107 1553 136.107H1545V143.107C1545 150.839 1538.73 157.107 1531 157.107H1488C1480.27 157.107 1474 150.839 1474 143.107V122.107C1474 119.133 1474.93 116.375 1476.51 114.107H1445C1437.27 114.107 1431 107.839 1431 100.107V35.1073C1431 27.3754 1437.27 21.1073 1445 21.1073H1453V14.1073C1453 6.37535 1459.27 0.107337 1467 0.107337H1531C1538.73 0.107337 1545 6.37535 1545 14.1073V35.1073Z" fill="white"/>
<path d="M155 14.1073H242V35.1073H177V57.1073H220V78.1073H177V122.107H199V100.107H220V143.107H155V122.107H134V35.1073H155V14.1073Z" fill="#C6FC58"/>
<path d="M163 46.5966C160.732 48.1786 157.975 49.1073 155 49.1073H148V108.107H155C157.975 108.107 160.732 109.035 163 110.617V78.1073C163 73.9257 164.834 70.1727 167.74 67.6073C164.834 65.042 163 61.2889 163 57.1073V46.5966ZM234 78.1073C234 82.5696 231.912 86.5437 228.66 89.1073C231.912 91.671 234 95.6451 234 100.107V143.107C234 150.839 227.732 157.107 220 157.107H155C147.268 157.107 141 150.839 141 143.107V136.107H134C126.268 136.107 120 129.839 120 122.107V35.1073C120 27.3754 126.268 21.1073 134 21.1073H141V14.1073C141 6.37535 147.268 0.107337 155 0.107337H242C249.732 0.107337 256 6.37535 256 14.1073V35.1073C256 42.8393 249.732 49.1073 242 49.1073H231.489C233.071 51.3751 234 54.1326 234 57.1073V78.1073Z" fill="white"/>
<path d="M603 14.1073H689V35.1073H624V57.1073H667V78.1073H624V122.107H646V100.107H667V143.107H603V122.107H581V35.1073H603V14.1073Z" fill="#C1F750"/>
<path d="M610 47.2343C607.941 48.4255 605.55 49.1073 603 49.1073H595V108.107H603C605.55 108.107 607.941 108.788 610 109.979V78.1073C610 73.9257 611.834 70.1727 614.74 67.6073C611.834 65.042 610 61.2889 610 57.1073V47.2343ZM681 78.1073C681 82.5696 678.912 86.5437 675.66 89.1073C678.912 91.671 681 95.6451 681 100.107V143.107C681 150.839 674.732 157.107 667 157.107H603C595.268 157.107 589 150.839 589 143.107V136.107H581C573.268 136.107 567 129.839 567 122.107V35.1073C567 27.3754 573.268 21.1073 581 21.1073H589V14.1073C589 6.37535 595.268 0.107337 603 0.107337H689C696.732 0.107337 703 6.37535 703 14.1073V35.1073C703 42.8393 696.732 49.1073 689 49.1073H678.489C680.071 51.3751 681 54.1326 681 57.1073V78.1073Z" fill="white"/>
<path d="M699 14.1073H807V35.1073H763V143.107H742V121.107H720V35.1073H699V14.1073Z" fill="#BFF64D"/>
<path d="M807 0.107337C814.732 0.107337 821 6.37535 821 14.1073V35.1073C821 42.8393 814.732 49.1073 807 49.1073H777V143.107C777 150.839 770.732 157.107 763 157.107H742C734.268 157.107 728 150.839 728 143.107V135.107H720C712.268 135.107 706 128.839 706 121.107V49.1073H699C691.268 49.1073 685 42.8393 685 35.1073V14.1073C685 6.37535 691.268 0.107337 699 0.107337H807ZM732.127 28.1073C733.318 30.1666 734 32.5573 734 35.1073V107.107H742C744.55 107.107 746.941 107.788 749 108.979V35.1073C749 32.5573 749.682 30.1666 750.873 28.1073H732.127Z" fill="white"/>
<path d="M416 14.1073H438V35.1073H460V56.1073H481V35.1073H502V14.1073H545V35.1073H567V143.107H545V164.107H524V56.1073H502V121.107H481V100.107H460V99.1073H459V78.1073H438V121.107H416V143.107H395V35.1073H416V14.1073Z" fill="#C1F752"/>
<path d="M460 35.1073H438V14.1073H416V35.1073H395V143.107H416V121.107H438V78.1073H459V99.1073H460V100.107H481V121.107H502V56.1073H524V164.107H545V143.107H567V35.1073H545V14.1073H502V35.1073H481V56.1073H460V35.1073ZM554 26.1073H567C571.971 26.1073 576 30.1368 576 35.1073V143.107C576 148.078 571.971 152.107 567 152.107H554V164.107C554 169.078 549.971 173.107 545 173.107H524C519.029 173.107 515 169.078 515 164.107V65.1073H511V121.107C511 126.078 506.971 130.107 502 130.107H481C476.029 130.107 472 126.078 472 121.107V109.107H460C457.26 109.107 454.807 107.882 453.156 105.95C451.225 104.299 450 101.847 450 99.1073V87.1073H447V121.107C447 126.078 442.971 130.107 438 130.107H425V143.107C425 148.078 420.971 152.107 416 152.107H395C390.029 152.107 386 148.078 386 143.107V35.1073C386 30.1368 390.029 26.1073 395 26.1073H407V14.1073C407 9.13677 411.029 5.10734 416 5.10734H438C442.971 5.10734 447 9.13677 447 14.1073V26.1073H460C464.971 26.1073 469 30.1368 469 35.1073V47.1073H472V35.1073C472 30.1368 476.029 26.1073 481 26.1073H493V14.1073C493 9.13677 497.029 5.10734 502 5.10734H545C549.971 5.10734 554 9.13677 554 14.1073V26.1073Z" fill="black"/>
<path d="M1180 14.1073H1288V35.1073H1309V121.107H1288V143.107H1266V164.107H1223V143.107H1202V35.1073H1180V14.1073Z" fill="#78E42E"/>
<path d="M1288 143.107V121.107H1309V35.1073H1288V14.1073H1180V35.1073H1202V143.107H1223V164.107H1266V143.107H1288ZM1297 26.1073H1309C1313.97 26.1073 1318 30.1368 1318 35.1073V121.107C1318 126.078 1313.97 130.107 1309 130.107H1297V143.107C1297 148.078 1292.97 152.107 1288 152.107H1275V164.107C1275 169.078 1270.97 173.107 1266 173.107H1223C1218.03 173.107 1214 169.078 1214 164.107V152.107H1202C1197.03 152.107 1193 148.078 1193 143.107V44.1073H1180C1175.03 44.1073 1171 40.0779 1171 35.1073V14.1073C1171 9.13677 1175.03 5.10734 1180 5.10734H1288C1292.97 5.10734 1297 9.13677 1297 14.1073V26.1073Z" fill="black"/>
<path d="M323.002 35.0493L277.403 22.9313L278.041 113.663L371.686 112.175L381.041 121.214H359.041V143.214H295.041V121.214H273.041V100.214H251.041V35.2143H273.041L323.002 35.0493Z" fill="#8EF739"/>
<path d="M271.892 15.8161C274.11 14.0979 277.003 13.5124 279.715 14.2331L325.313 26.3513C329.676 27.5107 332.505 31.7227 331.928 36.1999C331.35 40.677 327.546 44.0344 323.032 44.0495L286.552 44.1696L286.977 104.52L371.543 103.176C373.925 103.139 376.226 104.047 377.939 105.703L387.295 114.742C389.933 117.291 390.759 121.186 389.385 124.587C388.01 127.988 384.709 130.215 381.041 130.215H368.041V143.215C368.041 148.185 364.011 152.215 359.041 152.215H295.041C290.07 152.215 286.041 148.185 286.041 143.215V130.215H273.041C268.07 130.215 264.041 126.185 264.041 121.215V109.215H251.041C246.07 109.215 242.041 105.185 242.041 100.215V35.2145C242.041 30.244 246.07 26.2145 251.041 26.2145H268.426L268.403 22.9948C268.384 20.1891 269.673 17.5343 271.892 15.8161ZM304.041 122.251V134.215H350.041V121.52L304.041 122.251ZM260.041 91.2145H268.883L268.553 44.2145H260.041V91.2145Z" fill="black"/>
<path d="M273 14.1073H359V35.1073H381V121.107H359V143.107H295L357.079 121.32L347.41 23.3113L287.882 26.5473L251 100.107V35.1073H273V14.1073Z" fill="#8EF739"/>
<path d="M359 5.10734C363.971 5.10734 368 9.13677 368 14.1073V26.1073H381C385.971 26.1073 390 30.1368 390 35.1073V121.107C390 126.078 385.971 130.107 381 130.107H368V143.107C368 148.078 363.971 152.107 359 152.107H295C290.613 152.107 286.865 148.944 286.128 144.619C285.391 140.294 287.88 136.068 292.02 134.615L347.428 115.169L339.298 32.7646L293.586 35.2499L259.045 104.142C257.175 107.871 252.987 109.826 248.928 108.865C244.868 107.904 242 104.279 242 100.107V35.1073C242 30.1368 246.029 26.1073 251 26.1073H264V14.1073C264 9.13677 268.029 5.10734 273 5.10734H359ZM347.822 134.107H350V133.343L347.822 134.107ZM365.214 112.107H372V44.1073H359C358.833 44.1073 358.668 44.1016 358.503 44.0927L365.214 112.107ZM260 62.0771L269.01 44.1073H260V62.0771Z" fill="black"/>
<path d="M294.703 100.104L337.782 100.529L337.357 35.0013H380.829V121.001H358.829V143.001H294.829V121.001H272.829V100.001H250.829V35.0013L295.065 34.8513L294.703 100.104Z" fill="#8EF739"/>
<path d="M295.034 25.8513C297.435 25.8432 299.74 26.7946 301.435 28.4939C303.131 30.1934 304.079 32.5003 304.065 34.9011L303.752 91.1931L328.723 91.4392L328.357 35.0593C328.342 32.6625 329.283 30.3584 330.973 28.658C332.662 26.9576 334.96 26.0017 337.357 26.0017H380.829C385.8 26.0017 389.829 30.0312 389.829 35.0017V121.002C389.829 125.972 385.799 130.002 380.829 130.002H367.829V143.002C367.829 147.972 363.799 152.002 358.829 152.002H294.829C289.859 152.002 285.829 147.972 285.829 143.002V130.002H272.829C267.859 130.002 263.829 125.972 263.829 121.002V109.002H250.829C245.859 109.002 241.829 104.972 241.829 100.002V35.0017C241.829 30.0431 245.84 26.0185 250.799 26.0017L295.034 25.8513ZM259.829 43.9705V91.0017H272.829C277.8 91.0017 281.829 95.0312 281.829 100.002V112.002H294.829C299.8 112.002 303.829 116.031 303.829 121.002V134.002H349.829V121.002C349.829 116.031 353.858 112.002 358.829 112.002H371.829V44.0017H346.415L346.782 100.47C346.798 102.883 345.844 105.201 344.136 106.904C342.427 108.607 340.106 109.553 337.693 109.529L294.614 109.104C289.659 109.055 285.676 105.01 285.703 100.054L286.015 43.8816L259.829 43.9705Z" fill="black"/>
<path d="M273.002 14.0703H359.002V35.0703H381.002V121.07H359.002V56.6553C297.619 56.8023 316.05 56.7553 316.513 56.7483V34.0823L273.002 35.2293L272.046 100.07H251.002V35.0703H273.002V14.0703Z" fill="#8EF739"/>
<path d="M381.002 35.0703H359.002V14.0703H273.002V35.0703H251.002V100.07H272.046L273.002 35.2293L316.513 34.0823V56.7483C316.044 56.7553 297.63 56.8023 359.002 56.6553V121.07H381.002V35.0703ZM368.002 26.0703H381.002C385.973 26.0703 390.002 30.0998 390.002 35.0703V121.07C390.002 126.041 385.973 130.07 381.002 130.07H359.002C354.031 130.07 350.002 126.041 350.002 121.07V65.6758C326.163 65.7328 317.276 65.7546 314.582 65.7598C314.206 65.7605 313.948 65.7606 313.786 65.7608H313.469C313.464 65.7607 313.387 65.7597 313.294 65.7569C313.215 65.7541 312.889 65.735 312.642 65.7129C309.509 63.2642 308.474 59.902 308.551 56.7481H307.513V43.3223L281.873 43.9981L281.045 100.203C280.972 105.121 276.965 109.07 272.046 109.07H251.002C246.031 109.07 242.002 105.041 242.002 100.07V35.0703C242.002 30.0998 246.031 26.0703 251.002 26.0703H264.002V14.0703C264.002 9.09977 268.031 5.07034 273.002 5.07034H359.002C363.973 5.07034 368.002 9.09977 368.002 14.0703V26.0703Z" fill="black"/>
<path d="M294.9 33.3373L294.549 100.119L337.259 100.076L337.267 40.9793C391.299 40.9793 377.832 65.0663 380.809 120.984H358.809V142.984H294.809V120.984H272.809V99.9843H250.809V34.9843H272.809L294.9 33.3373Z" fill="#8EF739"/>
<path d="M1345 14.1073H1409V35.1073H1431V143.107H1409V121.107H1388V100.107H1366V164.107H1345V143.107H1323V35.1073H1345V14.1073Z" fill="#ADEF42"/>
<path d="M1431 35.1073H1409V14.1073H1345V35.1073H1323V143.107H1345V164.107H1366V100.107H1388V121.107H1409V143.107H1431V35.1073ZM1418 26.1073H1431C1435.97 26.1073 1440 30.1368 1440 35.1073V143.107C1440 148.078 1435.97 152.107 1431 152.107H1409C1404.03 152.107 1400 148.078 1400 143.107V130.107H1388C1383.03 130.107 1379 126.078 1379 121.107V109.107H1375V164.107C1375 169.078 1370.97 173.107 1366 173.107H1345C1340.03 173.107 1336 169.078 1336 164.107V152.107H1323C1318.03 152.107 1314 148.078 1314 143.107V35.1073C1314 30.1368 1318.03 26.1073 1323 26.1073H1336V14.1073C1336 9.13677 1340.03 5.10734 1345 5.10734H1409C1413.97 5.10734 1418 9.13677 1418 14.1073V26.1073Z" fill="black"/>
<path d="M837 14.1073H901V35.1073H923V78.1073H901V100.107H923V143.107H901V121.107H880V100.107H858V164.107H837V143.107H815V35.1073H837V14.1073Z" fill="#BDF44C"/>
<path d="M923 100.107H901V78.1073H923V35.1073H901V14.1073H837V35.1073H815V143.107H837V164.107H858V100.107H880V121.107H901V143.107H923V100.107ZM910 26.1073H923C927.971 26.1073 932 30.1368 932 35.1073V78.1073C932 83.0779 927.971 87.1073 923 87.1073H910V91.1073H923C927.971 91.1073 932 95.1368 932 100.107V143.107C932 148.078 927.971 152.107 923 152.107H901C896.029 152.107 892 148.078 892 143.107V130.107H880C875.029 130.107 871 126.078 871 121.107V109.107H867V164.107C867 169.078 862.971 173.107 858 173.107H837C832.029 173.107 828 169.078 828 164.107V152.107H815C810.029 152.107 806 148.078 806 143.107V35.1073C806 30.1368 810.029 26.1073 815 26.1073H828V14.1073C828 9.13677 832.029 5.10734 837 5.10734H901C905.971 5.10734 910 9.13677 910 14.1073V26.1073Z" fill="black"/>
<path d="M36 14.1073H79V35.1073H57V100.107H79V57.1073H122V164.107H100V121.107H79V143.107H36V121.107H14V35.1073H36V14.1073Z" fill="#94FC3C"/>
<path d="M122 57.1073H79V100.107H57V35.1073H79V14.1073H36V35.1073H14V121.107H36V143.107H79V121.107H100V164.107H122V57.1073ZM88 35.1073C88 40.0779 83.9706 44.1073 79 44.1073H66V91.1073H70V57.1073C70 52.1368 74.0294 48.1073 79 48.1073H122C126.971 48.1073 131 52.1368 131 57.1073V164.107C131 169.078 126.971 173.107 122 173.107H100C95.0294 173.107 91 169.078 91 164.107V130.107H88V143.107C88 148.078 83.9706 152.107 79 152.107H36C31.0294 152.107 27 148.078 27 143.107V130.107H14C9.02944 130.107 5 126.078 5 121.107V35.1073C5 30.1368 9.02944 26.1073 14 26.1073H27V14.1073C27 9.13677 31.0294 5.10734 36 5.10734H79C83.9706 5.10734 88 9.13677 88 14.1073V35.1073Z" fill="black"/>
<path d="M1565 14.1073H1586V35.1073H1608V78.1073H1629V14.1073H1651V35.1073H1672V143.107H1651V121.107H1629V100.107H1608V143.107H1586V121.107H1565V14.1073Z" fill="#A4EB3E"/>
<path d="M1629 14.1073V78.1073H1608V35.1073H1586V14.1073H1565V121.107H1586V143.107H1608V100.107H1629V121.107H1651V143.107H1672V35.1073H1651V14.1073H1629ZM1660 26.1073H1672C1676.97 26.1073 1681 30.1368 1681 35.1073V143.107C1681 148.078 1676.97 152.107 1672 152.107H1651C1646.03 152.107 1642 148.078 1642 143.107V130.107H1629C1624.03 130.107 1620 126.078 1620 121.107V109.107H1617V143.107C1617 148.078 1612.97 152.107 1608 152.107H1586C1581.03 152.107 1577 148.078 1577 143.107V130.107H1565C1560.03 130.107 1556 126.078 1556 121.107V14.1073C1556 9.13677 1560.03 5.10734 1565 5.10734H1586C1590.97 5.10734 1595 9.13677 1595 14.1073V26.1073H1608C1612.97 26.1073 1617 30.1368 1617 35.1073V69.1073H1620V14.1073C1620 9.13677 1624.03 5.10734 1629 5.10734H1651C1655.97 5.10734 1660 9.13677 1660 14.1073V26.1073Z" fill="black"/>
<path d="M958 14.1073H979V57.1073H1001V78.1073H1022V35.1073H1044V143.107H1022V164.107H979V143.107H958V122.107H1001V99.1073H958V78.1073H936V35.1073H958V14.1073Z" fill="#7DE931"/>
<path d="M1044 143.107V35.1073H1022V78.1073H1001V57.1073H979V14.1073H958V35.1073H936V78.1073H958V99.1073H1001V122.107H958V143.107H979V164.107H1022V143.107H1044ZM988 48.1073H1001C1005.97 48.1073 1010 52.1368 1010 57.1073V69.1073H1013V35.1073C1013 30.1368 1017.03 26.1073 1022 26.1073H1044C1048.97 26.1073 1053 30.1368 1053 35.1073V143.107C1053 148.078 1048.97 152.107 1044 152.107H1031V164.107C1031 169.078 1026.97 173.107 1022 173.107H979C974.029 173.107 970 169.078 970 164.107V152.107H958C953.029 152.107 949 148.078 949 143.107V122.107C949 117.137 953.029 113.107 958 113.107H992V108.107H958C953.029 108.107 949 104.078 949 99.1073V87.1073H936C931.029 87.1073 927 83.0779 927 78.1073V35.1073C927 30.1368 931.029 26.1073 936 26.1073H949V14.1073C949 9.13677 953.029 5.10734 958 5.10734H979C983.971 5.10734 988 9.13677 988 14.1073V48.1073Z" fill="black"/>
<path d="M1467 14.1073H1531V35.1073H1488V57.1073H1553V122.107H1531V143.107H1488V122.107H1509V100.107H1445V35.1073H1467V14.1073Z" fill="#A9EE40"/>
<path d="M1553 122.107V57.1073H1488V35.1073H1531V14.1073H1467V35.1073H1445V100.107H1509V122.107H1488V143.107H1531V122.107H1553ZM1540 35.1073C1540 40.0779 1535.97 44.1073 1531 44.1073H1497V48.1073H1553C1557.97 48.1073 1562 52.1368 1562 57.1073V122.107C1562 127.078 1557.97 131.107 1553 131.107H1540V143.107C1540 148.078 1535.97 152.107 1531 152.107H1488C1483.03 152.107 1479 148.078 1479 143.107V122.107C1479 117.137 1483.03 113.107 1488 113.107H1500V109.107H1445C1440.03 109.107 1436 105.078 1436 100.107V35.1073C1436 30.1368 1440.03 26.1073 1445 26.1073H1458V14.1073C1458 9.13677 1462.03 5.10734 1467 5.10734H1531C1535.97 5.10734 1540 9.13677 1540 14.1073V35.1073Z" fill="black"/>
<path d="M155 14.1073H242V35.1073H177V57.1073H220V78.1073H177V122.107H199V100.107H220V143.107H155V122.107H134V35.1073H155V14.1073Z" fill="#C6FC58"/>
<path d="M220 100.107H199V122.107H177V78.1073H220V57.1073H177V35.1073H242V14.1073H155V35.1073H134V122.107H155V143.107H220V100.107ZM251 35.1073C251 40.0779 246.971 44.1073 242 44.1073H186V48.1073H220C224.971 48.1073 229 52.1368 229 57.1073V78.1073C229 83.0779 224.971 87.1073 220 87.1073H186V113.107H190V100.107C190 95.1368 194.029 91.1073 199 91.1073H220C224.971 91.1073 229 95.1368 229 100.107V143.107C229 148.078 224.971 152.107 220 152.107H155C150.029 152.107 146 148.078 146 143.107V131.107H134C129.029 131.107 125 127.078 125 122.107V35.1073C125 30.1368 129.029 26.1073 134 26.1073H146V14.1073C146 9.13677 150.029 5.10734 155 5.10734H242C246.971 5.10734 251 9.13677 251 14.1073V35.1073Z" fill="black"/>
<path d="M603 14.1073H689V35.1073H624V57.1073H667V78.1073H624V122.107H646V100.107H667V143.107H603V122.107H581V35.1073H603V14.1073Z" fill="#C1F750"/>
<path d="M667 100.107H646V122.107H624V78.1073H667V57.1073H624V35.1073H689V14.1073H603V35.1073H581V122.107H603V143.107H667V100.107ZM698 35.1073C698 40.0779 693.971 44.1073 689 44.1073H633V48.1073H667C671.971 48.1073 676 52.1368 676 57.1073V78.1073C676 83.0779 671.971 87.1073 667 87.1073H633V113.107H637V100.107C637 95.1368 641.029 91.1073 646 91.1073H667C671.971 91.1073 676 95.1368 676 100.107V143.107C676 148.078 671.971 152.107 667 152.107H603C598.029 152.107 594 148.078 594 143.107V131.107H581C576.029 131.107 572 127.078 572 122.107V35.1073C572 30.1368 576.029 26.1073 581 26.1073H594V14.1073C594 9.13677 598.029 5.10734 603 5.10734H689C693.971 5.10734 698 9.13677 698 14.1073V35.1073Z" fill="black"/>
<path d="M699 14.1073H807V35.1073H763V143.107H742V121.107H720V35.1073H699V14.1073Z" fill="#BFF64D"/>
<path d="M807 35.1073V14.1073H699V35.1073H720V121.107H742V143.107H763V35.1073H807ZM816 35.1073C816 40.0779 811.971 44.1073 807 44.1073H772V143.107C772 148.078 767.971 152.107 763 152.107H742C737.029 152.107 733 148.078 733 143.107V130.107H720C715.029 130.107 711 126.078 711 121.107V44.1073H699C694.029 44.1073 690 40.0779 690 35.1073V14.1073C690 9.13677 694.029 5.10734 699 5.10734H807C811.971 5.10734 816 9.13677 816 14.1073V35.1073Z" fill="black"/>
<path d="M312.23 55.9793H316.018V58.1563H312.23V55.9793Z" fill="black"/>
<path d="M316.518 55.4793V58.6561H311.73V55.4793H316.518ZM312.73 57.6561H315.518V56.4793H312.73V57.6561Z" fill="black"/>
<path d="M1180 14.1073H1288V35.1073H1309V81.1073H1267V76.1073H1266V35.1073H1245V81.1073H1202V35.1073H1180V14.1073Z" fill="#B3F145"/>
<path d="M273 14.1073H359V35.1073H380V81.1073H338V43.1073H319V57.1073H316V35.1073H294V81.1073H252V35.1073H273V14.1073Z" fill="#C4FA56"/>
<path d="M1430 35.1073H1431V143.107H1409V121.107H1388V100.107H1366V164.107H1345V143.107H1323V76.1073H1324V81.1073H1430V35.1073Z" fill="#75E32D"/>
<path d="M815 76.1073H816V81.1073H901V100.107H923V143.107H901V121.107H880V100.107H858V164.107H837V143.107H815V76.1073Z" fill="#81ED33"/>
<path d="M1565 81.1073H1672V143.107H1651V121.107H1629V100.107H1608V143.107H1586V121.107H1565V81.1073Z" fill="#6FDE2A"/>
<path d="M958 14.1073H979V57.1073H1001V78.1073H1022V35.1073H1044V81.1073H958V78.1073H936V35.1073H958V14.1073Z" fill="#BAF249"/>
<path d="M1552 57.1073H1553V122.107H1531V143.107H1488V122.107H1509V100.107H1445V81.1073H1552V57.1073Z" fill="#71DF2B"/>
<path d="M176 78.1073H177V122.107H199V100.107H220V143.107H155V122.107H134V81.1073H176V78.1073Z" fill="#91FA3B"/>
<path d="M581 76.1073H582V81.1073H624V122.107H646V100.107H667V143.107H603V122.107H581V76.1073Z" fill="#87F136"/>
<path d="M524 81.1073H567V143.107H545V164.107H524V81.1073Z" fill="#89F437"/>
<path d="M36 14.1073H79V35.1073H57V81.1073H14V35.1073H36V14.1073Z" fill="#C7FD5A"/>
<path d="M720 35.1073H721V81.1073H763V143.107H742V121.107H720V35.1073Z" fill="#84F035"/>
<path d="M437 78.1073H438V121.107H416V143.107H395V81.1073H437V78.1073Z" fill="#8CF639"/>
<path d="M1245 35.1073H1266V121.107H1245V35.1073Z" fill="black"/>
<path d="M459 78.1073H460V81.1073H502V121.107H481V100.107H460V99.1073H459V78.1073Z" fill="#8AF338"/>
<path d="M219 100.107H220V143.107H155V122.107H134V108.107H156V129.107H219V100.107Z" fill="#64AD28"/>
<path d="M79 57.1073H121V81.1073H79V57.1073Z" fill="#C7FD59"/>
<path d="M1445 86.1073H1510V122.107H1509V100.107H1445V86.1073Z" fill="#4C971C"/>
<path d="M603 129.107H667V143.107H603V129.107Z" fill="#5DA925"/>
<path d="M295 129.107H359V143.107H295V129.107Z" fill="#62AD27"/>
<path d="M303 44.1073H308V82.0943C308 84.4513 307.98 86.0673 308.007 86.0943H329V91.1073H303V44.1073Z" fill="white"/>
<path d="M305.463 60.1163L307.996 44.0913V61.0913C307.996 63.4483 309.632 65.0913 311.996 65.0913L320.45 65.1323L312.287 71.1143C310.542 71.1143 307.937 70.5933 307.937 67.5723L305.463 60.1163Z" fill="white"/>
<path d="M323.983 71.1263L312.004 71.1233L313.76 66.9723C313.76 69.3293 309.636 65.0723 312 65.0723H329V91.0723H324.12L323.983 71.1263Z" fill="white"/>
<path d="M241 14.1073H242V35.1073H177V24.1073H241V14.1073Z" fill="#94D23B"/>
<path d="M624 24.1073H689V35.1073H624V24.1073Z" fill="#8AD135"/>
<path d="M155 14.1073H241V18.1073H159V39.1073H137V76.1073H134V35.1073H155V14.1073Z" fill="#F6F9A9"/>
<path d="M219 61.1073H220V78.1073H177V64.1073H219V61.1073Z" fill="#95D33B"/>
<path d="M1488 129.107H1531V143.107H1488V129.107Z" fill="#4E9B1D"/>
<path d="M36 129.107H79V143.107H36V129.107Z" fill="#66AF29"/>
<path d="M624 64.1073H667V78.1073H624V64.1073Z" fill="#8BD236"/>
<path d="M603 14.1073H688V18.1073H606V39.1073H584V76.1073H581V35.1073H603V14.1073Z" fill="#F6F99A"/>
<path d="M273 14.1073H359V18.1073H276V39.1073H255V76.1073H252V34.9883L273 34.9043V14.1073Z" fill="#F7FBA5"/>
<path d="M1223 150.107H1224V151.107H1266V164.107H1223V150.107Z" fill="#539F1F"/>
<path d="M979 150.107H980V151.107H1022V164.107H979V150.107Z" fill="#57A221"/>
<path d="M958 86.1073H1001V99.1073H958V86.1073Z" fill="#58A422"/>
<path d="M1345 14.1073H1409V18.1073H1348V39.1073H1326V76.1073H1323V35.1073H1345V14.1073Z" fill="#E9F57E"/>
<path d="M1467 14.1073H1530V18.1073H1470V39.1073H1448V76.1073H1445V35.1073H1467V14.1073Z" fill="#EEFD7E"/>
<path d="M837 14.1073H901V18.1073H839V39.1073H818V76.1073H815V35.1073H837V14.1073Z" fill="#F3F591"/>
<path d="M806 14.1073H807V35.1073H763V24.1073H806V14.1073Z" fill="#85CD34"/>
<path d="M699 14.1073H806V18.1073H702V35.1073H699V14.1073Z" fill="#FAFD97"/>
<path d="M1488 24.1073H1531V35.1073H1488V24.1073Z" fill="#74CA2B"/>
<path d="M1366 35.1073H1388V56.1073H1366V35.1073ZM858 35.1073H880V56.1073H858V35.1073Z" fill="#050603"/>
<path d="M502 14.1073H545V18.1073H505V39.1073H484V61.1073H462V57.1073H481V35.1073H502V14.1073Z" fill="#F5F79D"/>
<path d="M1181 14.1073H1287V18.1073H1183V24.1073H1181V14.1073Z" fill="#F3FD85"/>
<path d="M36 14.1073H78V18.1073H39V39.1073H17V76.1073H14V35.1073H36V14.1073Z" fill="#FCFEB2"/>
<path d="M121 57.1073H122V164.107H100V121.107H101V151.107H121V57.1073Z" fill="#5FA126"/>
<path d="M1430 35.1073H1431V143.107H1409V129.107H1430V35.1073Z" fill="#569F20"/>
<path d="M720 35.1073H721V107.107H742V121.107H720V35.1073Z" fill="#5C9C27"/>
<path d="M380 35.1073H381V121.107H359V107.107H380V35.1073Z" fill="#5FA126"/>
<path d="M1323 76.1073H1324V129.107H1345V143.107H1323V76.1073Z" fill="#53A020"/>
<path d="M815 76.1073H816V129.107H837V143.107H815V76.1073Z" fill="#5BA724"/>
<path d="M1552 57.1073H1553V122.107H1531V108.107H1552V57.1073Z" fill="#4B901C"/>
<path d="M250.808 34.9863L252 34.9813V86.1073H273V100.107H250.746L250.808 34.9863Z" fill="#63A12C"/>
<path d="M1043 81.1073H1044V143.107H1022V129.107H1043V81.1073Z" fill="#57A321"/>
<path d="M566 81.1073H567V143.107H545V129.107H566V81.1073Z" fill="#5FAA26"/>
<path d="M1253 43.1073H1258V113.107H1253V44.1073L1253 43.1073Z" fill="white"/>
<path d="M416 14.1073H437V18.1073H419V39.1073H398V76.1073H395V35.1073H416V14.1073Z" fill="#F3F59F"/>
<path d="M1607 100.107H1608V143.107H1586V129.107H1607V100.107Z" fill="#4C981C"/>
<path d="M922 100.107H923V143.107H901V129.107H922V100.107Z" fill="#57A222"/>
<path d="M437 78.1073H438V121.107H416V107.107H437V78.1073Z" fill="#61AC27"/>
<path d="M936 35.1073H958V36.1073H937V76.1073H939V64.1073H958V78.1073H936V35.1073Z" fill="#8DCD3C"/>
<path d="M922 39.1073H923V78.1073H901V64.1073H922V39.1073Z" fill="#84CC33"/>
<path d="M459 78.1073H460V86.1073H481V100.107H460V99.1073H459V78.1073Z" fill="#5BA024"/>
<path d="M319 42.7063H338V100.107H337V57.1073H319V42.7063Z" fill="#8DC83A"/>
<path d="M1266 129.107H1288V143.107H1266V129.107Z" fill="#529E1F"/>
<path d="M1629 107.107H1651V121.107H1629V107.107Z" fill="#4D9B1C"/>
<path d="M581 108.107H603V122.107H581V108.107Z" fill="#5CA424"/>
<path d="M272.835 107.107H295V121.107H272.825L272.835 107.107Z" fill="#64B028"/>
<path d="M14 107.107H36V121.107H14V107.107Z" fill="#69B32A"/>
<path d="M1366 86.1073H1388V100.107H1366V86.1073Z" fill="#509C1E"/>
<path d="M858 86.1073H880V100.107H858V86.1073Z" fill="#58A322"/>
<path d="M502 42.1073H524V56.1073H502V42.1073Z" fill="#90D439"/>
<path d="M524 150.107H545V164.107H524V150.107Z" fill="#60AC26"/>
<path d="M1651 129.107H1672V143.107H1651V129.107Z" fill="#4D9B1D"/>
<path d="M1202 129.107H1223V143.107H1202V129.107Z" fill="#54A020"/>
<path d="M958 129.107H979V143.107H958V129.107Z" fill="#58A422"/>
<path d="M742 129.107H763V143.107H742V129.107Z" fill="#5CA724"/>
<path d="M395 129.107H416V143.107H395V129.107Z" fill="#61AC27"/>
<path d="M1565 107.107H1586V121.107H1565V107.107Z" fill="#4F9C1E"/>
<path d="M1388 107.107H1409V121.107H1388V107.107Z" fill="#519F1F"/>
<path d="M1288 107.107H1309V121.107H1288V107.107Z" fill="#53A120"/>
<path d="M880 107.107H901V121.107H880V107.107Z" fill="#5AA623"/>
<path d="M79 107.107H100V121.107H79V107.107Z" fill="#67B12A"/>
<path d="M481 107.107H502V121.107H481V107.107Z" fill="#60AB27"/>
<path d="M1608 86.1073H1629V100.107H1608V86.1073Z" fill="#4C981C"/>
<path d="M438 64.1073H459V78.1073H438V64.1073Z" fill="#90D439"/>
<path d="M958 14.1073H979V18.1073H961V39.1073H939V76.1073H937V36.1073H958V14.1073Z" fill="#F8FD8D"/>
<path d="M1345 151.107H1366V164.107H1345V151.107Z" fill="#529F1F"/>
<path d="M837 151.107H858V164.107H837V151.107Z" fill="#5AA623"/>
<path d="M1565 14.1073H1586V18.1073H1568V76.1073H1565V14.1073Z" fill="#EAFC7A"/>
<path d="M1180 14.1073H1181V24.1073H1202V35.1073H1180V14.1073Z" fill="#7FCF2F"/>
<path d="M308 68.1073C308 69.8263 309.897 71.1073 312 71.1073H324V86.1073H308V68.1073Z" fill="black" fill-opacity="0.5"/>
<path d="M1491 57.1073H1552V61.1073H1491V57.1073Z" fill="#ECFD7B"/>
<path d="M1366 24.1073H1388V35.1073H1366V24.1073Z" fill="#79CD2E"/>
<path d="M858 24.1073H880V35.1073H858V24.1073Z" fill="#85D034"/>
<path d="M57 24.1073H79V35.1073H57V24.1073Z" fill="#97D33D"/>
<path d="M1245 24.1073H1266V35.1073H1245V24.1073Z" fill="#7BCE2F"/>
<path d="M295 24.1073H316V35.1073H295V24.1073Z" fill="#93D53B"/>
<path d="M79 57.1073H121V61.1073H82V76.1073H79V57.1073Z" fill="#F9FDAC"/>
<path d="M702 24.1073H720V35.1073H702V24.1073Z" fill="#88D236"/>
<path d="M1630 14.1073H1650V18.1073H1632V76.1073H1630V14.1073Z" fill="#ECFD7A"/>
<path d="M1022 36.1073H1043V39.1073H1025V76.1073H1022V36.1073Z" fill="#FCFE91"/>
<path d="M627 57.1073H667V61.1073H627V57.1073Z" fill="#F9FD9A"/>
<path d="M180 57.1073H220V61.1073H180V57.1073Z" fill="#F8FCA8"/>
<path d="M1388 39.1073H1391V61.1073H1369V57.1073H1388V39.1073Z" fill="#EBFC7C"/>
<path d="M880 39.1073H883V61.1073H861V57.1073H880V39.1073Z" fill="#F6FC8D"/>
<path d="M1202 39.1073H1205V76.1073H1202V39.1073Z" fill="#F3FD85"/>
<path d="M721 39.1073H724V76.1073H721V39.1073Z" fill="#F3FC8F"/>
<path d="M982 57.1073H1000V61.1073H982V57.1073Z" fill="#F9FD8F"/>
<path d="M1291 35.1073H1309V39.1073H1291V35.1073Z" fill="#F6FE88"/>
<path d="M316 39.1073H319V57.1073H316V39.1073Z" fill="#E5FD7F"/>
<path d="M1654 36.1073H1672V39.1073H1654V36.1073Z" fill="#EEFE7C"/>
<path d="M1589 36.1073H1607V39.1073H1589V36.1073Z" fill="#EDFD7B"/>
<path d="M1412 36.1073H1430V39.1073H1412V36.1073Z" fill="#F2FD82"/>
<path d="M904 36.1073H922V39.1073H904V36.1073Z" fill="#FDFD95"/>
<path d="M548 36.1073H566V39.1073H548V36.1073Z" fill="#FDFDA1"/>
<path d="M441 36.1073H459V39.1073H441V36.1073Z" fill="#FEFEA6"/>
<path d="M362 36.1073H380V39.1073H362V36.1073Z" fill="#FEFEA9"/>
<path d="M524 61.1073H527V76.1073H524V61.1073Z" fill="#FEFEA3"/>
<path d="M1180 14.1073H1181V24.1073H1183V35.1073H1180V14.1073Z" fill="#BFDE5A"/>
<path d="M699 24.1073H702V35.1073H699V24.1073Z" fill="#DAFE6D"/>
<path d="M1374 44.1073H1379V48.1073H1374V44.1073ZM866 44.1073H871V48.1073H866V44.1073Z" fill="white"/>
</svg>
