<svg width="596" height="245" viewBox="0 0 596 245" fill="none" xmlns="http://www.w3.org/2000/svg">
<path d="M523.402 88.6068C535.864 88.6068 545.811 86.5937 555.501 82.184V63.9556C555.501 63.5942 555.117 63.373 554.8 63.5426C544.75 68.815 535.576 71.1009 523.394 71.1009C508.661 71.1009 501.11 64.0514 501.11 50.4538C501.11 36.8562 508.661 29.8066 523.394 29.8066C535.576 29.8066 544.75 32.0926 554.8 37.365C555.117 37.5346 555.501 37.306 555.501 36.952V18.7235C545.811 14.3213 535.864 12.3008 523.402 12.3008C496.715 12.3008 481.355 26.1491 481.355 50.4464C481.355 74.7437 496.715 88.592 523.402 88.592V88.6068Z" fill="#FF5500"/>
<path d="M472.394 51.7231C472.394 24.4025 455.655 12.4492 431.609 12.4492C405.424 12.4492 389.562 26.799 389.562 50.2188C389.562 79.051 407.444 88.6151 433.371 88.6151C449.107 88.6151 461.569 86.0932 470.131 82.7012V65.2322C470.131 64.8709 469.754 64.6497 469.437 64.8119C463.236 67.9016 449.122 71.6254 433.622 71.6254C419.987 71.6254 411.419 67.2084 409.494 56.3908H471.347C471.738 56.3908 472.07 56.1106 472.129 55.7271C472.313 54.4072 472.402 53.0283 472.402 51.7378H472.394V51.7231ZM431.601 28.8121C443.805 28.8121 450.53 34.2836 453.016 42.2844H409.856C411.972 33.6421 418.557 28.8121 431.601 28.8121Z" fill="#FF5500"/>
<path d="M344.853 12.3219C331.705 12.3219 322.738 17.4542 317.156 25.0788C317.016 25.2706 316.721 25.1821 316.714 24.9387L316.404 14.335H297.644V111.9H316.905V76.21C316.905 75.9741 317.2 75.8708 317.348 76.0626C322.937 83.5545 331.852 88.6057 344.853 88.6057C367.137 88.6057 380.985 72.6189 380.985 50.4601C380.985 28.3013 367.137 12.3145 344.853 12.3145V12.3219ZM339.064 71.1146C326.093 71.1146 316.905 62.9295 316.905 50.4675C316.905 38.0054 326.093 29.8203 339.064 29.8203C353.038 29.8203 360.721 37.7547 360.721 50.4675C360.721 63.1802 353.045 71.1146 339.064 71.1146Z" fill="#FF5500"/>
<path d="M236.314 86.7283H255.574V31.8364H287.799V14.3379H204.082V31.8364H236.314V86.7283Z" fill="#0A1E78"/>
<path d="M134.327 54.448V14.3336H114.941V87.8817C114.941 88.9214 116.121 89.5187 116.954 88.9066L175.113 46.5284V86.7239H194.499V13.1758C194.499 12.1361 193.319 11.5388 192.486 12.1509L134.327 54.448Z" fill="#0A1E78"/>
<path d="M9.76162 87.5956C4.3786 87.5956 0.433594 87.3449 0.433594 87.3449V69.9496H3.56015C7.2029 69.9496 9.93852 69.0795 11.7599 67.3392C13.5813 65.599 14.9307 62.76 15.8008 58.8297C16.671 54.8993 17.3568 48.9928 17.8508 41.1247C18.1826 35.5721 18.5145 26.6717 18.8464 14.4088C18.9275 10.6038 19.0529 5.79595 19.2151 0H96.9072V86.7254H75.5375V16.6431H39.2058C39.1174 17.8008 38.9184 22.4022 38.5865 30.4325C38.4169 36.0662 38.2546 39.6278 38.0924 41.1174C37.3476 53.1296 36.1825 62.3249 34.6119 68.7034C33.0338 75.0819 30.3424 79.8234 26.5374 82.9278C22.725 86.0323 17.1356 87.5882 9.76902 87.5882L9.76162 87.5956Z" fill="#0A1E78"/>
<path d="M0.540824 145.224C-0.00484991 145.224 -0.159653 145.563 0.223794 145.946C2.3475 148.07 3.66738 151.012 3.66738 154.264C3.66738 157.516 2.35488 160.443 0.238554 162.567C-0.167013 162.98 -0.0343389 163.305 0.732554 163.305H46.23C48.8109 161.144 50.4626 157.899 50.4626 154.257C50.4626 150.614 48.8109 147.369 46.23 145.209H0.540824V145.224Z" fill="#0A1E78"/>
<path d="M0.540824 172.403C-0.00484991 172.403 -0.159653 172.742 0.223794 173.126C2.3475 175.25 3.66738 178.192 3.66738 181.444C3.66738 184.696 2.35488 187.623 0.238554 189.747C-0.167013 190.16 -0.0343389 190.484 0.732554 190.484H28.5029C31.0838 188.324 32.7355 185.079 32.7355 181.436C32.7355 177.794 31.0838 174.549 28.5029 172.389H0.540824V172.403Z" fill="#0A1E78"/>
<path d="M0.538924 199.585C-0.0436158 199.585 -0.168909 199.917 0.236664 200.323C2.35299 202.446 3.66549 205.374 3.66549 208.633C3.66549 211.893 2.35299 214.813 0.236664 216.936C-0.168909 217.349 -0.0362349 217.674 0.730654 217.674H10.7667C13.3476 215.513 14.9994 212.269 14.9994 208.626C14.9994 204.983 13.3476 201.739 10.7667 199.578H0.546314L0.538924 199.585Z" fill="#0A1E78"/>
<path d="M82.8715 145.224H70.6601C73.241 147.385 74.8928 150.622 74.8928 154.272C74.8928 157.915 73.241 161.16 70.6601 163.32H82.8715C85.4524 161.167 87.1041 157.922 87.1041 154.272C87.1041 150.622 85.4524 147.385 82.8715 145.224Z" fill="#FF5500"/>
<path d="M70.6601 145.224H58.4492C61.0301 147.385 62.6745 150.622 62.6819 154.272C62.6819 157.915 61.0301 161.16 58.4492 163.32H70.6601C73.2409 161.167 74.8928 157.922 74.8928 154.272C74.8928 150.622 73.241 147.385 70.6601 145.224Z" fill="#6262D9"/>
<path d="M82.8677 172.412H52.9219C55.5027 174.573 57.1545 177.81 57.1545 181.46C57.1545 185.103 55.5027 188.347 52.9219 190.508H82.8677C85.4486 188.354 87.1003 185.11 87.1003 181.46C87.1003 177.81 85.4486 174.573 82.8677 172.412Z" fill="#FF5500"/>
<path d="M52.9184 172.412H40.707C43.2879 174.573 44.9323 177.81 44.9397 181.46C44.9397 185.103 43.2879 188.347 40.707 190.508H52.9184C55.4993 188.354 57.151 185.11 57.151 181.46C57.151 177.81 55.4993 174.573 52.9184 172.412Z" fill="#6262D9"/>
<path d="M58.4379 145.224H46.2265C48.8074 147.385 50.4592 150.622 50.4592 154.272C50.4592 157.915 48.8074 161.16 46.2265 163.32H58.4379C61.0188 161.167 62.6706 157.922 62.6706 154.272C62.6706 150.622 61.0188 147.385 58.4379 145.224Z" fill="#3D3DC7"/>
<path d="M40.707 172.412H28.4961C31.077 174.573 32.7289 177.81 32.7289 181.46C32.7289 185.103 31.077 188.347 28.4961 190.508H40.707C43.2879 188.354 44.9397 185.11 44.9397 181.46C44.9397 177.81 43.2879 174.573 40.707 172.412Z" fill="#3D3DC7"/>
<path d="M82.8717 199.586H35.1914C37.7723 201.746 39.4167 204.984 39.424 208.634C39.424 212.276 37.7723 215.521 35.1914 217.682H82.8717C85.4526 215.528 87.1043 212.284 87.1043 208.634C87.1043 204.984 85.4526 201.746 82.8717 199.586Z" fill="#FF5500"/>
<path d="M35.1879 199.586H22.9765C25.5574 201.746 27.2018 204.984 27.2092 208.634C27.2092 212.276 25.5574 215.521 22.9765 217.682H35.1879C37.7688 215.528 39.4206 212.284 39.4206 208.634C39.4206 204.984 37.7688 201.746 35.1879 199.586Z" fill="#6262D9"/>
<path d="M22.9651 199.586H10.7539C13.3348 201.746 14.9865 204.984 14.9865 208.634C14.9865 212.276 13.3348 215.521 10.7539 217.682H22.9651C25.546 215.528 27.1977 212.284 27.1977 208.634C27.1977 204.984 25.546 201.746 22.9651 199.586Z" fill="#3D3DC7"/>
<path d="M224.104 131.427H241.698L208.744 172.183L242.812 217.4H224.974L194.122 177.264V217.4H179.499V177.264L148.779 217.4H130.941L165.009 172.426L132.055 131.42H149.649L179.506 168.459V131.42H194.129V168.585L224.111 131.42L224.104 131.427Z" fill="#0A1E78"/>
<path d="M308.021 153.107L271.601 244.169H256.359L267.509 216.295L242.238 153.115H258.092L275.192 197.587L292.16 153.115H308.014L308.021 153.107Z" fill="#0A1E78"/>
<path d="M332.262 165.747C333.626 160.172 340.565 151.869 353.448 151.869C367.451 151.869 381.321 163.889 381.321 185.192C381.321 206.495 367.443 218.64 353.448 218.64C340.565 218.64 333.626 210.219 332.262 204.763V244.162H318.016V153.1H332.262V165.747ZM332.262 188.171C332.262 197.831 340.314 205.021 348.986 205.021C358.152 205.021 366.33 197.956 366.33 185.199C366.33 172.442 358.152 165.503 348.986 165.503C340.314 165.503 332.262 172.568 332.262 182.353V188.178V188.171Z" fill="#0A1E78"/>
<path d="M438.082 153.107H452.328V217.408H438.082V191.518H408.969V217.408H394.723V153.107H408.969V177.884H438.082V153.107Z" fill="#0A1E78"/>
<path d="M468.12 159.3C474.565 154.838 484.225 151.992 494.261 151.992C513.957 151.992 523.005 162.647 523.005 178.258V217.407H508.884V205.387C507.77 211.95 499.843 218.645 488.568 218.645C476.549 218.645 465.281 211.463 465.281 198.205C465.281 184.946 477.92 178.133 491.791 178.133C498.729 178.133 504.054 179.121 508.884 181.23V178.258C508.884 169.712 501.451 165.25 493.147 165.25C485.464 165.25 478.901 167.728 473.82 171.194L468.12 159.3ZM479.771 197.829C479.771 203.278 485.095 206.25 492.034 206.25C500.086 206.25 508.884 200.926 508.884 194.112V192.748C504.054 190.396 498.973 189.4 492.779 189.4C485.965 189.4 479.771 192.372 479.771 197.821V197.829Z" fill="#0A1E78"/>
<path d="M595.286 153.107V217.408H581.039V166.616H560.348L558.615 183.96C556.631 203.907 553.409 218.647 534.458 218.647L532.105 205.389C543.506 205.514 544.619 192.381 545.983 178.629L548.335 153.107H595.286Z" fill="#0A1E78"/>
</svg>
