<svg width="653" height="100" viewBox="0 0 653 100" fill="none" xmlns="http://www.w3.org/2000/svg">
<path d="M650.912 64.7127H651.488C651.93 64.7127 652.288 65.0708 652.288 65.5127V73.2007C652.288 73.6425 651.93 74.0007 651.488 74.0007H646.921C643.757 74.0007 641.761 72.7623 640.936 70.4231C637.771 73.5191 633.78 75.0327 628.758 75.0327C620.502 75.0327 614.792 70.0791 614.792 62.855C614.792 55.5622 619.883 51.4342 628.827 51.4342H640.523C640.11 46.8934 637.702 44.7606 633.024 44.7606C629.482 44.7606 626.928 46.0979 625.31 48.7189C625.073 49.1033 624.578 49.2584 624.182 49.0401L617.641 45.4311C617.248 45.2142 617.109 44.7146 617.349 44.3353C620.78 38.9122 625.775 36.5046 633.368 36.5046C643.481 36.5046 649.536 42.2838 649.536 51.9846V63.3367C649.536 64.1623 650.086 64.7127 650.912 64.7127ZM623.736 62.5111C623.736 65.4007 626.212 67.1207 630.203 67.1207C634.124 67.1207 637.908 65.6071 640.592 63.1991V58.3142H629.515C625.868 58.3142 623.736 59.8279 623.736 62.5111Z" fill="black"/>
<path d="M560.727 73.2007C560.727 73.6425 560.369 74.0007 559.927 74.0007H552.239C551.797 74.0007 551.439 73.6425 551.439 73.2007V46.1366H539.511C539.069 46.1366 538.711 45.7785 538.711 45.3366V38.3366C538.711 37.8948 539.069 37.5366 539.511 37.5366H572.655C573.097 37.5366 573.455 37.8948 573.455 38.3366V45.3366C573.455 45.7785 573.097 46.1366 572.655 46.1366H560.727V73.2007Z" fill="black"/>
<path d="M519.72 75.0327C508.162 75.0327 500.043 67.5335 500.043 55.7686C500.043 44.0038 508.574 36.5046 519.651 36.5046C527.963 36.5046 533.176 40.1099 536.017 45.4404C536.221 45.8235 536.062 46.2947 535.676 46.4928L529.158 49.8364C528.77 50.0358 528.295 49.8845 528.064 49.5139C526.364 46.791 523.601 44.967 519.72 44.967C513.735 44.967 509.331 49.0262 509.331 55.7686C509.331 62.5111 513.528 66.5703 519.376 66.5703C523.722 66.5703 526.905 64.7971 529.043 61.0779C529.262 60.6966 529.738 60.537 530.132 60.7337L536.955 64.1452C537.353 64.344 537.513 64.83 537.297 65.2189C534.208 70.7891 528.896 75.0327 519.72 75.0327Z" fill="black"/>
<path d="M472.25 65.7447L485.38 37.9944C485.513 37.7149 485.794 37.5366 486.103 37.5366H493.053C493.495 37.5366 493.853 37.8948 493.853 38.3366V73.2007C493.853 73.6425 493.495 74.0007 493.053 74.0007H486.053C485.611 74.0007 485.253 73.6425 485.253 73.2007V52.7414L475.356 73.5443C475.224 73.8231 474.943 74.0007 474.634 74.0007H469.654C469.348 74.0007 469.069 73.826 468.935 73.5508L459.04 53.223V73.2007C459.04 73.6425 458.682 74.0007 458.24 74.0007H451.24C450.798 74.0007 450.44 73.6425 450.44 73.2007V38.3366C450.44 37.8948 450.798 37.5366 451.24 37.5366H458.193C458.5 37.5366 458.781 37.7129 458.914 37.9901L472.25 65.7447Z" fill="black"/>
<path d="M424.583 75.0327C413.162 75.0327 404.906 67.4647 404.906 55.7686C404.906 44.0726 413.162 36.5046 424.583 36.5046C436.003 36.5046 444.259 44.0726 444.259 55.7686C444.259 67.4647 436.003 75.0327 424.583 75.0327ZM424.583 66.5703C430.775 66.5703 434.971 62.5111 434.971 55.7686C434.971 49.0262 430.775 44.967 424.583 44.967C418.391 44.967 414.194 49.0262 414.194 55.7686C414.194 62.5111 418.391 66.5703 424.583 66.5703Z" fill="black"/>
<path d="M387.031 55.1494L404.579 72.634C405.085 73.1375 404.728 74.0007 404.015 74.0007H393.831C393.618 74.0007 393.414 73.9159 393.264 73.7651L378.431 58.8646V73.2007C378.431 73.6425 378.073 74.0007 377.631 74.0007H369.943C369.501 74.0007 369.143 73.6425 369.143 73.2007V38.3366C369.143 37.8948 369.501 37.5366 369.943 37.5366H377.631C378.073 37.5366 378.431 37.8948 378.431 38.3366V52.3286L392.506 37.7804C392.656 37.6246 392.864 37.5366 393.081 37.5366H402.649C403.361 37.5366 403.718 38.3968 403.216 38.9012L387.031 55.1494Z" fill="black"/>
<path d="M362.274 64.7127H362.85C363.292 64.7127 363.65 65.0708 363.65 65.5127V73.2007C363.65 73.6425 363.292 74.0007 362.85 74.0007H358.283C355.119 74.0007 353.123 72.7623 352.298 70.4231C349.133 73.5191 345.143 75.0327 340.12 75.0327C331.864 75.0327 326.154 70.0791 326.154 62.855C326.154 55.5622 331.245 51.4342 340.189 51.4342H351.885C351.472 46.8934 349.064 44.7606 344.386 44.7606C340.844 44.7606 338.291 46.0979 336.672 48.7189C336.435 49.1033 335.94 49.2584 335.544 49.0401L329.003 45.4311C328.61 45.2142 328.471 44.7146 328.711 44.3353C332.142 38.9122 337.137 36.5046 344.73 36.5046C354.843 36.5046 360.898 42.2838 360.898 51.9846V63.3367C360.898 64.1623 361.448 64.7127 362.274 64.7127ZM335.098 62.5111C335.098 65.4007 337.575 67.1207 341.565 67.1207C345.487 67.1207 349.271 65.6071 351.954 63.1991V58.3142H340.877C337.231 58.3142 335.098 59.8279 335.098 62.5111Z" fill="black"/>
<path d="M311.002 51.0902V38.3366C311.002 37.8948 311.36 37.5366 311.802 37.5366H319.49C319.931 37.5366 320.29 37.8948 320.29 38.3366V73.2007C320.29 73.6425 319.931 74.0007 319.49 74.0007H311.802C311.36 74.0007 311.002 73.6425 311.002 73.2007V59.6902H295.522V73.2007C295.522 73.6425 295.163 74.0007 294.722 74.0007H287.034C286.592 74.0007 286.234 73.6425 286.234 73.2007V38.3366C286.234 37.8948 286.592 37.5366 287.034 37.5366H294.722C295.163 37.5366 295.522 37.8948 295.522 38.3366V51.0902H311.002Z" fill="black"/>
<path d="M260.216 75.0327C248.956 75.0327 241.288 69.8093 237.973 61.5887C237.822 61.2143 237.988 60.7897 238.347 60.6047L245.669 56.8293C246.114 56.5998 246.657 56.8324 246.829 57.3028C248.89 62.9636 253.723 66.5015 259.735 66.5015C266.133 66.5015 269.367 63.4743 269.367 59.6902C269.367 55.4934 266.34 53.3606 260.904 53.3606H254.618C254.176 53.3606 253.818 53.0025 253.818 52.5606V45.5606C253.818 45.1188 254.176 44.7606 254.618 44.7606H260.904C264.964 44.7606 267.991 42.6966 267.991 39.119C267.991 35.7478 265.583 33.271 259.804 33.271C254.297 33.271 251.169 35.3452 249.1 39.3212C248.887 39.729 248.385 39.9001 247.979 39.6839L241.05 35.9921C240.656 35.7821 240.509 35.2891 240.737 34.9053C244.754 28.1534 251.089 24.8086 259.804 24.8086C271.431 24.8086 277.829 30.6566 277.829 38.5686C277.829 43.935 273.976 46.8934 270.88 48.4758V48.8198C274.664 49.9206 279.343 53.1542 279.343 60.1718C279.343 69.2535 272.463 75.0327 260.216 75.0327Z" fill="black"/>
<path fill-rule="evenodd" clip-rule="evenodd" d="M164.893 50.0457C164.893 41.141 158.882 34.8632 150.156 34.8632C141.34 34.8632 135.329 41.141 135.329 50.0457C135.329 58.7724 141.34 65.1392 150.156 65.1392C158.882 65.1392 164.893 58.7724 164.893 50.0457ZM150.156 74.7118C136.22 74.7118 125 64.2042 125 50.0012C125 35.8872 136.22 25.2461 150.156 25.2461C164.003 25.2461 175.223 35.9318 175.223 50.0012C175.223 64.2488 164.003 74.7118 150.156 74.7118ZM180.12 27.2051C180.12 26.4037 180.565 25.9585 181.367 25.9585H189.114C189.915 25.9585 190.361 26.4037 190.361 27.2051V45.8605L207.769 26.7154C208.259 26.1811 208.704 26.003 209.417 26.003H220.592C221.349 26.003 221.438 26.7599 220.948 27.2942L199.176 49.2888L222.106 72.7973C222.596 73.2871 222.507 74.0885 221.75 74.0885H210.663C209.728 74.0885 209.461 73.8659 208.972 73.4206L190.361 52.9843V72.7973C190.361 73.5987 189.915 74.044 189.114 74.044H181.367C180.565 74.044 180.12 73.5987 180.12 72.7973V27.2051Z" fill="black"/>
<path d="M603.411 54.5976V54.9416C606.851 55.5608 610.635 58.3816 610.635 63.748C610.635 69.8712 606.3 73.9992 598.595 73.9992H579.099C578.657 73.9992 578.299 73.641 578.299 73.1992V38.3352C578.299 37.8933 578.657 37.5352 579.099 37.5352H597.563C604.856 37.5352 608.915 41.1128 608.915 46.7544C608.915 50.9512 606.713 53.5656 603.411 54.5976ZM595.361 44.7592H587.587V51.8456H595.361C598.044 51.8456 599.627 50.5384 599.627 48.268C599.627 46.0664 598.044 44.7592 595.361 44.7592ZM587.587 66.7752H596.531C599.558 66.7752 601.347 65.2616 601.347 62.716C601.347 60.2392 599.558 58.7256 596.531 58.7256H587.587V66.7752Z" fill="black"/>
<path d="M0 48C0 25.37 0 14.06 7.03 7.03C14.06 0 25.37 0 48 0L52 0C74.63 0 85.94 0 92.97 7.03C100 14.06 100 25.37 100 48V52C100 74.63 100 85.94 92.97 92.97C85.94 100 74.63 100 52 100H48C25.37 100 14.06 100 7.03 92.97C0 85.94 0 74.63 0 52L0 48Z" fill="url(#paint0_linear_84336_64)"/>
<path d="M79.3296 26.0413C75.0296 21.2513 69.1496 18.4913 62.7896 18.2913C62.5196 18.2913 62.2496 18.2812 61.9896 18.2812C58.4696 18.2812 55.0996 19.0212 51.9696 20.4812C51.8996 20.5112 51.8296 20.5412 51.7596 20.5812C51.1696 20.8612 50.5796 21.1712 49.9996 21.5112C49.4196 21.1712 48.8296 20.8612 48.2296 20.5812C45.0596 19.0612 41.6196 18.2913 38.0196 18.2913C37.7496 18.2913 37.4896 18.2912 37.2196 18.3012C30.8596 18.5012 24.9796 21.2512 20.6796 26.0512C16.2796 30.9612 14.0396 37.5612 14.5396 44.1612C16.1996 65.9313 44.8096 72.1913 48.0696 72.8313L49.3596 73.0813C49.7296 73.1513 50.0096 73.4813 50.0096 73.8613V83.0513C50.0096 83.6413 50.6296 84.0312 51.1596 83.7712L54.3896 82.2012C55.8096 81.5112 68.4896 75.1512 77.1496 64.4613C82.0396 58.4313 84.9196 51.4013 85.4696 44.1513C85.9696 37.5513 83.7396 30.9412 79.3296 26.0413ZM75.4996 43.3912C75.1196 48.3512 73.1596 53.5012 69.3796 58.1612C63.2696 65.7012 54.3596 70.8913 51.1896 72.6012C50.6596 72.8913 50.0096 72.5013 50.0096 71.9013V63.6612C50.0096 63.2912 49.7596 62.9613 49.3896 62.8812C45.1396 61.9212 20.5296 55.5512 25.0196 38.2112C26.5396 32.3512 31.8996 28.2913 37.9596 28.2812H38.0296C40.1196 28.2812 42.0796 28.7112 43.9396 29.6012C46.1196 30.6412 48.1396 32.2912 49.9996 34.5512H50.0096C51.8796 32.2812 53.8896 30.6412 56.0696 29.6012C57.9296 28.7112 59.8896 28.2812 61.9796 28.2812C62.1396 28.2812 62.2996 28.2812 62.4696 28.2812C70.2896 28.5312 76.0896 35.5812 75.4996 43.3813V43.3912Z" fill="white"/>
<defs>
<linearGradient id="paint0_linear_84336_64" x1="50" y1="34.1667" x2="50" y2="100" gradientUnits="userSpaceOnUse">
<stop stop-color="#FF7700"/>
<stop offset="1" stop-color="#FF2E00"/>
</linearGradient>
</defs>
</svg>
