<svg viewBox="0 0 32 32" xmlns="http://www.w3.org/2000/svg" width="32" height="32" fill="none"><path fill="#F74843" d="M0 0h32v32H0z"/><path fill="#fff" fill-rule="evenodd" d="M11.306 13.5H9.918l-1.714 5h1.143l.35-1.214h1.748l.35 1.214h1.143zm-.09 3-.644-2.213-.646 2.214z" clip-rule="evenodd"/><path fill="#fff" d="m5.347 13.5-1.143 3.786-1.142-3.785H2L3.714 18.5h.98l1.714-5zM19.306 17.643h-2.45v-4.142h-1.06V18.5h3.51zM24.123 13.5l-1.143 3.786-1.143-3.785h-1.061L22.49 18.5h.98l1.714-5zM30 16.287h-1.55V15.5h1.387v-.643h-1.388v-.715H30V13.5h-2.367v3.428H30z"/></svg>