<svg width="337" height="80" viewBox="0 0 337 80" fill="none" xmlns="http://www.w3.org/2000/svg">
<path fill-rule="evenodd" clip-rule="evenodd" d="M72 80C94.0914 80 112 62.0914 112 40C112 17.9086 94.0914 0 72 0C54.283 0 39.2564 11.5184 34 27.4753V12H0L19 72H34V52.5247C39.2564 68.4816 54.283 80 72 80ZM72 55C80.2843 55 87 48.2843 87 40C87 31.7157 80.2843 25 72 25C63.7157 25 57 31.7157 57 40C57 48.2843 63.7157 55 72 55Z" fill="#0171F0"/>
<path d="M175.168 21.6952H164.286L156.438 35.3714H152.387V6H142V58.9143H152.387V44.4762H156.438L166.559 58.9143H178.203L164.794 39.6762L175.168 21.6952Z" fill="#0A2540"/>
<path d="M253.149 39.1688C251.13 37.645 248.59 36.8958 246.317 36.1338C245.556 35.8799 244.794 35.6259 244.044 35.3719C243.79 35.3719 243.537 35.118 243.537 35.118C242.013 34.61 240.502 34.1021 240.502 32.591C240.502 31.8291 241.01 31.0672 241.517 30.318C242.279 29.81 243.041 29.5561 244.044 29.5561C246.064 29.3021 247.841 30.064 249.619 31.0799L249.873 31.3338L255.448 25.01L255.194 24.7561C254.432 24.2481 253.67 23.4862 252.921 23.2323C250.889 22.2164 249.378 21.7085 248.362 21.4545C247.346 21.2005 244.565 20.6926 241.276 21.4545C239.752 21.7085 237.479 22.2164 235.206 23.9815C232.679 26.0132 231.156 28.5402 230.902 31.3211C230.902 32.337 230.648 35.8799 232.679 38.6608C234.698 41.1878 238 42.4577 240.273 43.2196C240.442 43.2196 240.612 43.3041 240.781 43.4735C241.035 43.4735 241.289 43.7275 241.797 43.7275C245.594 44.9973 246.61 45.5053 247.117 46.5084C247.625 47.2704 247.625 47.7783 247.625 47.7783C247.625 49.5561 245.352 50.3053 243.829 50.8132C241.81 51.3212 239.524 50.5592 237.759 49.5434C236.489 48.5275 235.232 47.2704 234.216 46.0005C233.708 46.5085 227.892 52.3243 227.892 52.3243L228.146 52.5783C230.165 55.1053 233.721 58.4069 239.029 59.41C239.79 59.664 240.806 59.664 242.064 59.664H243.079C245.606 59.664 249.403 59.1561 252.705 56.6291C253.721 55.8672 255.74 54.3561 256.756 51.3085C257.771 48.5275 257.517 45.2386 255.74 42.445C255.486 41.1751 254.47 40.1719 253.213 39.1561L253.149 39.1688Z" fill="#0A2540"/>
<path d="M286.559 39.1688C284.54 37.645 282 36.8958 279.727 36.1338C278.965 35.8799 278.203 35.6259 277.454 35.3719C277.2 35.3719 276.946 35.118 276.946 35.118C275.422 34.61 273.911 34.1021 273.911 32.591C273.911 31.8291 274.419 31.0672 274.927 30.318C275.689 29.81 276.451 29.5561 277.454 29.5561C279.473 29.3021 281.251 30.064 283.029 31.0799L283.283 31.3338L288.857 25.01L288.603 24.7561C287.841 24.2481 287.079 23.4862 286.33 23.2323C284.311 22.2164 282.787 21.7085 281.771 21.4545C280.756 21.2005 277.975 20.6926 274.686 21.4545C273.162 21.7085 270.889 22.2164 268.616 23.9815C266.089 26.0132 264.565 28.5402 264.311 31.3211C264.311 32.337 264.057 35.8799 266.089 38.6608C268.108 41.1878 271.41 42.4577 273.683 43.2196C273.851 43.2196 274.022 43.3041 274.191 43.4735C274.444 43.4735 274.698 43.7275 275.206 43.7275C279.003 44.9973 280.019 45.5053 280.527 46.5084C281.035 47.2704 281.035 47.7783 281.035 47.7783C281.035 49.5561 278.762 50.3053 277.238 50.8132C275.206 51.3212 272.933 50.5592 271.168 49.5434C269.898 48.5275 268.641 47.2704 267.625 46.0005C267.117 46.5085 261.302 52.3243 261.302 52.3243L261.556 52.5783C263.575 55.1053 267.13 58.4069 272.438 59.41C273.2 59.664 274.216 59.664 275.473 59.664H276.489C279.016 59.664 282.813 59.1561 286.114 56.6291C287.13 55.8672 289.149 54.3561 290.165 51.3085C291.181 48.5275 290.927 45.2386 289.149 42.445C288.895 41.1751 287.879 40.1719 286.622 39.1561L286.559 39.1688Z" fill="#0A2540"/>
<path d="M209.606 40.4255C209.606 43.7144 208.591 46.4953 206.825 48.781C205.048 50.8001 202.521 51.8159 199.486 51.8159C196.705 51.8159 194.419 50.8001 192.4 48.5271C190.622 46.4953 189.619 43.7144 189.619 40.1715C189.619 36.8826 190.635 34.3429 192.4 32.0699C194.178 30.0382 196.705 28.781 199.486 28.781C202.521 28.781 204.806 29.7969 206.825 31.8159C208.603 34.3429 209.606 37.1366 209.606 40.4255ZM209.098 21.6953V25.2382H208.591C205.302 22.2032 201.759 20.6794 197.962 20.6794C192.895 20.6794 188.083 22.7112 184.794 26.254C181.505 29.7969 179.727 34.6096 179.727 39.9302C179.727 45.2509 181.505 50.3048 184.794 53.8604C188.083 57.4033 192.641 59.435 197.708 59.435C201.505 59.435 205.302 57.9112 208.591 55.1302H209.098V58.4191H219.727V21.2001H209.098V21.708V21.6953Z" fill="#0A2540"/>
<path d="M326.305 40.4255C326.305 43.7144 325.289 46.4953 323.524 48.781C321.746 50.8001 319.219 51.8159 316.184 51.8159C313.403 51.8159 311.117 50.8001 309.098 48.5271C307.321 46.4953 306.318 43.7144 306.318 40.1715C306.318 36.8826 307.333 34.3429 309.098 32.0699C310.876 30.0382 313.403 28.781 316.184 28.781C319.219 28.781 321.505 29.7969 323.524 31.8159C325.302 34.3429 326.305 37.1366 326.305 40.4255ZM325.797 21.6953V25.2382H325.289C322 22.2032 318.457 20.6794 314.66 20.6794C309.594 20.6794 304.781 22.7112 301.492 26.254C298.203 29.7969 296.425 34.6096 296.425 39.9302C296.425 45.2509 298.203 50.3048 301.492 53.8604C304.781 57.4033 309.34 59.435 314.406 59.435C318.203 59.435 322 57.9112 325.289 55.1302H325.797V58.4191H336.425V21.2001H325.797V21.708V21.6953Z" fill="#0A2540"/>
</svg>
